<?xml version="1.0" encoding="UTF-8"?>
<svg xmlns="http://www.w3.org/2000/svg"
     xmlns:xlink="http://www.w3.org/1999/xlink"
     xmlns:gadfly="http://www.gadflyjl.org/ns"
     version="1.2"
     width="141.42mm" height="100mm" viewBox="0 0 141.42 100"
     stroke="none"
     fill="#000000"
     stroke-width="0.3"
     font-size="3.88"
>
<defs>
  <marker id="arrow" markerWidth="15" markerHeight="7" refX="5" refY="3.5" orient="auto" markerUnits="strokeWidth">
    <path d="M0,0 L15,3.5 L0,7 z" stroke="context-stroke" fill="context-stroke"/>
  </marker>
</defs>
<g class="plotroot xscalable yscalable" id="img-878f6bf9-1">
  <g font-size="3.88" font-family="'PT Sans','Helvetica Neue','Helvetica',sans-serif" fill="#564A55" stroke="#000000" stroke-opacity="0.000" id="img-878f6bf9-2">
    <g transform="translate(75.39,88.39)">
      <g class="primitive">
        <text text-anchor="middle" dy="0.6em">Parametric bootstrap estimates of β₁</text>
      </g>
    </g>
  </g>
  <g class="guide xlabels" font-size="2.82" font-family="'PT Sans Caption','Helvetica Neue','Helvetica',sans-serif" fill="#6C606B" id="img-878f6bf9-3">
    <g transform="translate(16.37,81.72)">
      <g class="primitive">
        <text text-anchor="middle" dy="0.6em">1400</text>
      </g>
    </g>
    <g transform="translate(39.98,81.72)">
      <g class="primitive">
        <text text-anchor="middle" dy="0.6em">1450</text>
      </g>
    </g>
    <g transform="translate(63.59,81.72)">
      <g class="primitive">
        <text text-anchor="middle" dy="0.6em">1500</text>
      </g>
    </g>
    <g transform="translate(87.2,81.72)">
      <g class="primitive">
        <text text-anchor="middle" dy="0.6em">1550</text>
      </g>
    </g>
    <g transform="translate(110.81,81.72)">
      <g class="primitive">
        <text text-anchor="middle" dy="0.6em">1600</text>
      </g>
    </g>
    <g transform="translate(134.42,81.72)">
      <g class="primitive">
        <text text-anchor="middle" dy="0.6em">1650</text>
      </g>
    </g>
  </g>
  <g clip-path="url(#img-878f6bf9-4)">
    <g id="img-878f6bf9-5">
      <g pointer-events="visible" stroke-width="0.3" fill="#000000" fill-opacity="0.000" stroke="#000000" stroke-opacity="0.000" class="guide background" id="img-878f6bf9-6">
        <g transform="translate(75.39,42.86)" id="img-878f6bf9-7">
          <path d="M-61.03,-37.86 L61.03,-37.86 61.03,37.86 -61.03,37.86  z" class="primitive"/>
        </g>
      </g>
      <g class="guide ygridlines xfixed" stroke-dasharray="0.5,0.5" stroke-width="0.2" stroke="#D0D0E0" id="img-878f6bf9-8">
        <g transform="translate(75.39,78.72)" id="img-878f6bf9-9">
          <path fill="none" d="M-61.03,0 L61.03,0 " class="primitive"/>
        </g>
        <g transform="translate(75.39,64.37)" id="img-878f6bf9-10">
          <path fill="none" d="M-61.03,0 L61.03,0 " class="primitive"/>
        </g>
        <g transform="translate(75.39,50.03)" id="img-878f6bf9-11">
          <path fill="none" d="M-61.03,0 L61.03,0 " class="primitive"/>
        </g>
        <g transform="translate(75.39,35.69)" id="img-878f6bf9-12">
          <path fill="none" d="M-61.03,0 L61.03,0 " class="primitive"/>
        </g>
        <g transform="translate(75.39,21.34)" id="img-878f6bf9-13">
          <path fill="none" d="M-61.03,0 L61.03,0 " class="primitive"/>
        </g>
        <g transform="translate(75.39,7)" id="img-878f6bf9-14">
          <path fill="none" d="M-61.03,0 L61.03,0 " class="primitive"/>
        </g>
      </g>
      <g class="guide xgridlines yfixed" stroke-dasharray="0.5,0.5" stroke-width="0.2" stroke="#D0D0E0" id="img-878f6bf9-15">
        <g transform="translate(16.37,42.86)" id="img-878f6bf9-16">
          <path fill="none" d="M0,-37.86 L0,37.86 " class="primitive"/>
        </g>
        <g transform="translate(39.98,42.86)" id="img-878f6bf9-17">
          <path fill="none" d="M0,-37.86 L0,37.86 " class="primitive"/>
        </g>
        <g transform="translate(63.59,42.86)" id="img-878f6bf9-18">
          <path fill="none" d="M0,-37.86 L0,37.86 " class="primitive"/>
        </g>
        <g transform="translate(87.2,42.86)" id="img-878f6bf9-19">
          <path fill="none" d="M0,-37.86 L0,37.86 " class="primitive"/>
        </g>
        <g transform="translate(110.81,42.86)" id="img-878f6bf9-20">
          <path fill="none" d="M0,-37.86 L0,37.86 " class="primitive"/>
        </g>
        <g transform="translate(134.42,42.86)" id="img-878f6bf9-21">
          <path fill="none" d="M0,-37.86 L0,37.86 " class="primitive"/>
        </g>
      </g>
      <g class="plotpanel" id="img-878f6bf9-22">
        <metadata>
          <boundingbox value="14.366666666666674mm 5.0mm 122.05468957064284mm 75.715mm"/>
          <unitbox value="1395.7646748145416 0.025697204211113437 258.47065037091653 -0.026394408422226873"/>
        </metadata>
        <g stroke-width="0.3" fill="#000000" fill-opacity="0.000" class="geometry" id="img-878f6bf9-23">
          <g class="color_LCHab{Float32}(70.0f0,60.0f0,240.0f0)" stroke-dasharray="none" stroke-opacity="1" stroke="#00BFFF" id="img-878f6bf9-24">
            <g transform="translate(76.22,61.56)" id="img-878f6bf9-25">
              <path fill="none" d="M-39.33,17.15 L-39.02,17.15 -38.71,17.15 -38.4,17.15 -38.1,17.15 -37.79,17.15 -37.48,17.15 -37.17,17.15 -36.86,17.15 -36.55,17.14 -36.24,17.14 -35.94,17.13 -35.63,17.12 -35.32,17.12 -35.01,17.11 -34.7,17.11 -34.39,17.11 -34.09,17.11 -33.78,17.12 -33.47,17.12 -33.16,17.13 -32.85,17.13 -32.54,17.13 -32.23,17.13 -31.93,17.13 -31.62,17.12 -31.31,17.12 -31,17.11 -30.69,17.11 -30.38,17.11 -30.08,17.11 -29.77,17.11 -29.46,17.11 -29.15,17.11 -28.84,17.11 -28.53,17.1 -28.22,17.08 -27.92,17.05 -27.61,17.02 -27.3,16.97 -26.99,16.92 -26.68,16.85 -26.37,16.77 -26.07,16.69 -25.76,16.61 -25.45,16.52 -25.14,16.43 -24.83,16.35 -24.52,16.27 -24.21,16.19 -23.91,16.11 -23.6,16.02 -23.29,15.92 -22.98,15.8 -22.67,15.66 -22.36,15.5 -22.06,15.33 -21.75,15.13 -21.44,14.92 -21.13,14.69 -20.82,14.43 -20.51,14.15 -20.2,13.83 -19.9,13.48 -19.59,13.11 -19.28,12.7 -18.97,12.27 -18.66,11.81 -18.35,11.33 -18.05,10.83 -17.74,10.3 -17.43,9.76 -17.12,9.2 -16.81,8.63 -16.5,8.04 -16.19,7.42 -15.89,6.75 -15.58,6.04 -15.27,5.28 -14.96,4.48 -14.65,3.66 -14.34,2.82 -14.04,1.97 -13.73,1.11 -13.42,0.25 -13.11,-0.61 -12.8,-1.45 -12.49,-2.26 -12.18,-3.05 -11.88,-3.82 -11.57,-4.6 -11.26,-5.45 -10.95,-6.41 -10.64,-7.51 -10.33,-8.76 -10.03,-10.18 -9.72,-11.71 -9.41,-13.33 -9.1,-14.98 -8.79,-16.64 -8.48,-18.28 -8.17,-19.92 -7.87,-21.56 -7.56,-23.23 -7.25,-24.93 -6.94,-26.68 -6.63,-28.46 -6.32,-30.23 -6.02,-31.96 -5.71,-33.59 -5.4,-35.1 -5.09,-36.46 -4.78,-37.64 -4.47,-38.66 -4.16,-39.55 -3.86,-40.33 -3.55,-41.06 -3.24,-41.78 -2.93,-42.51 -2.62,-43.25 -2.31,-43.98 -2.01,-44.67 -1.7,-45.27 -1.39,-45.76 -1.08,-46.12 -0.77,-46.34 -0.46,-46.45 -0.15,-46.49 0.15,-46.5 0.46,-46.51 0.77,-46.52 1.08,-46.51 1.39,-46.44 1.7,-46.27 2.01,-45.96 2.31,-45.51 2.62,-44.93 2.93,-44.26 3.24,-43.54 3.55,-42.8 3.86,-42.06 4.16,-41.31 4.47,-40.52 4.78,-39.67 5.09,-38.73 5.4,-37.69 5.71,-36.54 6.02,-35.28 6.32,-33.95 6.63,-32.55 6.94,-31.11 7.25,-29.64 7.56,-28.16 7.87,-26.66 8.17,-25.15 8.48,-23.62 8.79,-22.08 9.1,-20.54 9.41,-19.03 9.72,-17.56 10.03,-16.13 10.33,-14.76 10.64,-13.44 10.95,-12.14 11.26,-10.85 11.57,-9.56 11.88,-8.26 12.18,-6.95 12.49,-5.64 12.8,-4.35 13.11,-3.1 13.42,-1.9 13.73,-0.77 14.04,0.3 14.34,1.29 14.65,2.23 14.96,3.11 15.27,3.95 15.58,4.75 15.89,5.51 16.19,6.22 16.5,6.9 16.81,7.53 17.12,8.12 17.43,8.68 17.74,9.23 18.05,9.76 18.35,10.29 18.66,10.81 18.97,11.31 19.28,11.79 19.59,12.23 19.9,12.63 20.2,13.01 20.51,13.36 20.82,13.69 21.13,14.03 21.44,14.36 21.75,14.69 22.06,15 22.36,15.29 22.67,15.54 22.98,15.76 23.29,15.93 23.6,16.07 23.91,16.18 24.21,16.26 24.52,16.33 24.83,16.39 25.14,16.45 25.45,16.51 25.76,16.56 26.07,16.62 26.37,16.67 26.68,16.71 26.99,16.75 27.3,16.77 27.61,16.78 27.92,16.8 28.22,16.81 28.53,16.83 28.84,16.86 29.15,16.9 29.46,16.94 29.77,16.99 30.08,17.03 30.38,17.07 30.69,17.09 31,17.12 31.31,17.13 31.62,17.14 31.93,17.14 32.23,17.14 32.54,17.14 32.85,17.14 33.16,17.13 33.47,17.12 33.78,17.12 34.09,17.11 34.39,17.11 34.7,17.11 35.01,17.11 35.32,17.12 35.63,17.12 35.94,17.13 36.24,17.14 36.55,17.14 36.86,17.15 37.17,17.15 37.48,17.15 37.79,17.15 38.1,17.15 38.4,17.15 38.71,17.15 39.02,17.15 39.33,17.15 " class="primitive"/>
            </g>
          </g>
        </g>
      </g>
    </g>
  </g>
  <g class="guide ylabels" font-size="2.82" font-family="'PT Sans Caption','Helvetica Neue','Helvetica',sans-serif" fill="#6C606B" id="img-878f6bf9-26">
    <g transform="translate(13.37,78.72)" id="img-878f6bf9-27">
      <g class="primitive">
        <text text-anchor="end" dy="0.35em">0.000</text>
      </g>
    </g>
    <g transform="translate(13.37,64.37)" id="img-878f6bf9-28">
      <g class="primitive">
        <text text-anchor="end" dy="0.35em">0.005</text>
      </g>
    </g>
    <g transform="translate(13.37,50.03)" id="img-878f6bf9-29">
      <g class="primitive">
        <text text-anchor="end" dy="0.35em">0.010</text>
      </g>
    </g>
    <g transform="translate(13.37,35.69)" id="img-878f6bf9-30">
      <g class="primitive">
        <text text-anchor="end" dy="0.35em">0.015</text>
      </g>
    </g>
    <g transform="translate(13.37,21.34)" id="img-878f6bf9-31">
      <g class="primitive">
        <text text-anchor="end" dy="0.35em">0.020</text>
      </g>
    </g>
    <g transform="translate(13.37,7)" id="img-878f6bf9-32">
      <g class="primitive">
        <text text-anchor="end" dy="0.35em">0.025</text>
      </g>
    </g>
  </g>
</g>
<defs>
  <clipPath id="img-878f6bf9-4">
    <path d="M14.37,5 L136.42,5 136.42,80.72 14.37,80.72 " />
  </clipPath>
</defs>
</svg>
