<?xml version="1.0" encoding="UTF-8"?>
<svg xmlns="http://www.w3.org/2000/svg"
     xmlns:xlink="http://www.w3.org/1999/xlink"
     xmlns:gadfly="http://www.gadflyjl.org/ns"
     version="1.2"
     width="141.42mm" height="100mm" viewBox="0 0 141.42 100"
     stroke="none"
     fill="#000000"
     stroke-width="0.3"
     font-size="3.88"
>
<defs>
  <marker id="arrow" markerWidth="15" markerHeight="7" refX="5" refY="3.5" orient="auto" markerUnits="strokeWidth">
    <path d="M0,0 L15,3.5 L0,7 z" stroke="context-stroke" fill="context-stroke"/>
  </marker>
</defs>
<g class="plotroot xscalable yscalable" id="img-62ee94a3-1">
  <g font-size="3.88" font-family="'PT Sans','Helvetica Neue','Helvetica',sans-serif" fill="#564A55" stroke="#000000" stroke-opacity="0.000" id="img-62ee94a3-2">
    <g transform="translate(77.53,88.39)">
      <g class="primitive">
        <text text-anchor="middle" dy="0.6em">Scaled and shifted u₃</text>
      </g>
    </g>
  </g>
  <g class="guide xlabels" font-size="2.82" font-family="'PT Sans Caption','Helvetica Neue','Helvetica',sans-serif" fill="#6C606B" id="img-62ee94a3-3">
    <g transform="translate(20.63,81.72)">
      <g class="primitive">
        <text text-anchor="middle" dy="0.6em">-5</text>
      </g>
    </g>
    <g transform="translate(77.53,81.72)">
      <g class="primitive">
        <text text-anchor="middle" dy="0.6em">0</text>
      </g>
    </g>
    <g transform="translate(134.42,81.72)">
      <g class="primitive">
        <text text-anchor="middle" dy="0.6em">5</text>
      </g>
    </g>
  </g>
  <g clip-path="url(#img-62ee94a3-4)">
    <g id="img-62ee94a3-5">
      <g pointer-events="visible" stroke-width="0.3" fill="#000000" fill-opacity="0.000" stroke="#000000" stroke-opacity="0.000" class="guide background" id="img-62ee94a3-6">
        <g transform="translate(77.53,42.86)" id="img-62ee94a3-7">
          <path d="M-58.89,-37.86 L58.89,-37.86 58.89,37.86 -58.89,37.86  z" class="primitive"/>
        </g>
      </g>
      <g class="guide ygridlines xfixed" stroke-dasharray="0.5,0.5" stroke-width="0.2" stroke="#D0D0E0" id="img-62ee94a3-8">
        <g transform="translate(77.53,78.72)" id="img-62ee94a3-9">
          <path fill="none" d="M-58.89,0 L58.89,0 " class="primitive"/>
        </g>
        <g transform="translate(77.53,60.79)" id="img-62ee94a3-10">
          <path fill="none" d="M-58.89,0 L58.89,0 " class="primitive"/>
        </g>
        <g transform="translate(77.53,42.86)" id="img-62ee94a3-11">
          <path fill="none" d="M-58.89,0 L58.89,0 " class="primitive"/>
        </g>
        <g transform="translate(77.53,24.93)" id="img-62ee94a3-12">
          <path fill="none" d="M-58.89,0 L58.89,0 " class="primitive"/>
        </g>
        <g transform="translate(77.53,7)" id="img-62ee94a3-13">
          <path fill="none" d="M-58.89,0 L58.89,0 " class="primitive"/>
        </g>
      </g>
      <g class="guide xgridlines yfixed" stroke-dasharray="0.5,0.5" stroke-width="0.2" stroke="#D0D0E0" id="img-62ee94a3-14">
        <g transform="translate(20.63,42.86)" id="img-62ee94a3-15">
          <path fill="none" d="M0,-37.86 L0,37.86 " class="primitive"/>
        </g>
        <g transform="translate(77.53,42.86)" id="img-62ee94a3-16">
          <path fill="none" d="M0,-37.86 L0,37.86 " class="primitive"/>
        </g>
        <g transform="translate(134.42,42.86)" id="img-62ee94a3-17">
          <path fill="none" d="M0,-37.86 L0,37.86 " class="primitive"/>
        </g>
      </g>
      <g class="plotpanel" id="img-62ee94a3-18">
        <metadata>
          <boundingbox value="18.63166666666666mm 5.0mm 117.78968957064285mm 75.715mm"/>
          <unitbox value="-5.175762848773602 1.311155267377815 10.351525697547203 -0.42231053475562996"/>
        </metadata>
        <g stroke-width="0.3" fill="#000000" fill-opacity="0.000" class="geometry" id="img-62ee94a3-19">
          <g class="color_LCHab{Float32}(70.0f0,60.0f0,240.0f0)" stroke-dasharray="none" stroke-opacity="1" stroke="#00BFFF" id="img-62ee94a3-20">
            <g transform="translate(77.53,54.56)" id="img-62ee94a3-21">
              <path fill="none" d="M-56.89,-17.47 L-56.18,-16.26 -55.47,-15.1 -54.76,-13.98 -54.05,-12.91 -53.34,-11.88 -52.63,-10.89 -51.92,-9.94 -51.21,-9.04 -50.49,-8.17 -49.78,-7.34 -49.07,-6.54 -48.36,-5.78 -47.65,-5.06 -46.94,-4.36 -46.23,-3.7 -45.52,-3.07 -44.8,-2.47 -44.09,-1.9 -43.38,-1.36 -42.67,-0.84 -41.96,-0.35 -41.25,0.11 -40.54,0.55 -39.83,0.97 -39.12,1.36 -38.4,1.73 -37.69,2.08 -36.98,2.41 -36.27,2.72 -35.56,3.02 -34.85,3.29 -34.14,3.55 -33.43,3.79 -32.71,4.01 -32,4.22 -31.29,4.41 -30.58,4.59 -29.87,4.76 -29.16,4.91 -28.45,5.05 -27.74,5.18 -27.03,5.3 -26.31,5.41 -25.6,5.51 -24.89,5.6 -24.18,5.69 -23.47,5.76 -22.76,5.83 -22.05,5.89 -21.34,5.94 -20.62,5.99 -19.91,6.03 -19.2,6.06 -18.49,6.09 -17.78,6.12 -17.07,6.14 -16.36,6.16 -15.65,6.18 -14.93,6.19 -14.22,6.2 -13.51,6.21 -12.8,6.22 -12.09,6.22 -11.38,6.23 -10.67,6.23 -9.96,6.23 -9.25,6.23 -8.53,6.23 -7.82,6.23 -7.11,6.23 -6.4,6.23 -5.69,6.23 -4.98,6.23 -4.27,6.23 -3.56,6.23 -2.84,6.23 -2.13,6.23 -1.42,6.23 -0.71,6.23 -0,6.23 0.71,6.23 1.42,6.22 2.13,6.22 2.84,6.22 3.56,6.22 4.27,6.22 4.98,6.22 5.69,6.21 6.4,6.21 7.11,6.2 7.82,6.2 8.53,6.18 9.25,6.17 9.96,6.16 10.67,6.14 11.38,6.12 12.09,6.09 12.8,6.06 13.51,6.03 14.22,5.99 14.93,5.95 15.65,5.9 16.36,5.84 17.07,5.78 17.78,5.71 18.49,5.63 19.2,5.54 19.91,5.45 20.62,5.34 21.34,5.23 22.05,5.11 22.76,4.97 23.47,4.82 24.18,4.66 24.89,4.49 25.6,4.31 26.31,4.11 27.03,3.89 27.74,3.66 28.45,3.42 29.16,3.15 29.87,2.87 30.58,2.57 31.29,2.25 32,1.92 32.71,1.56 33.43,1.18 34.14,0.77 34.85,0.35 35.56,-0.1 36.27,-0.58 36.98,-1.08 37.69,-1.6 38.4,-2.16 39.12,-2.74 39.83,-3.35 40.54,-3.99 41.25,-4.67 41.96,-5.37 42.67,-6.11 43.38,-6.88 44.09,-7.69 44.8,-8.54 45.52,-9.42 46.23,-10.34 46.94,-11.3 47.65,-12.31 48.36,-13.35 49.07,-14.44 49.78,-15.57 50.49,-16.76 51.21,-17.98 51.92,-19.26 52.63,-20.59 53.34,-21.97 54.05,-23.41 54.76,-24.9 55.47,-26.45 56.18,-28.06 56.89,-29.73 " class="primitive"/>
            </g>
          </g>
        </g>
      </g>
    </g>
  </g>
  <g class="guide ylabels" font-size="2.82" font-family="'PT Sans Caption','Helvetica Neue','Helvetica',sans-serif" fill="#6C606B" id="img-62ee94a3-22">
    <g transform="translate(17.63,78.72)" id="img-62ee94a3-23">
      <g class="primitive">
        <text text-anchor="end" dy="0.35em">0.9</text>
      </g>
    </g>
    <g transform="translate(17.63,60.79)" id="img-62ee94a3-24">
      <g class="primitive">
        <text text-anchor="end" dy="0.35em">1.0</text>
      </g>
    </g>
    <g transform="translate(17.63,42.86)" id="img-62ee94a3-25">
      <g class="primitive">
        <text text-anchor="end" dy="0.35em">1.1</text>
      </g>
    </g>
    <g transform="translate(17.63,24.93)" id="img-62ee94a3-26">
      <g class="primitive">
        <text text-anchor="end" dy="0.35em">1.2</text>
      </g>
    </g>
    <g transform="translate(17.63,7)" id="img-62ee94a3-27">
      <g class="primitive">
        <text text-anchor="end" dy="0.35em">1.3</text>
      </g>
    </g>
  </g>
  <g font-size="3.88" font-family="'PT Sans','Helvetica Neue','Helvetica',sans-serif" fill="#564A55" stroke="#000000" stroke-opacity="0.000" id="img-62ee94a3-28">
    <g transform="translate(8.81,40.86)" id="img-62ee94a3-29">
      <g class="primitive">
        <text text-anchor="middle" dy="0.35em" transform="rotate(-90,0, 2)">Kernel ratio</text>
      </g>
    </g>
  </g>
</g>
<defs>
  <clipPath id="img-62ee94a3-4">
    <path d="M18.63,5 L136.42,5 136.42,80.72 18.63,80.72 " />
  </clipPath>
</defs>
</svg>
