<?xml version="1.0" encoding="UTF-8"?>
<svg xmlns="http://www.w3.org/2000/svg"
     xmlns:xlink="http://www.w3.org/1999/xlink"
     xmlns:gadfly="http://www.gadflyjl.org/ns"
     version="1.2"
     width="141.42mm" height="100mm" viewBox="0 0 141.42 100"
     stroke="none"
     fill="#000000"
     stroke-width="0.3"
     font-size="3.88"
>
<defs>
  <marker id="arrow" markerWidth="15" markerHeight="7" refX="5" refY="3.5" orient="auto" markerUnits="strokeWidth">
    <path d="M0,0 L15,3.5 L0,7 z" stroke="context-stroke" fill="context-stroke"/>
  </marker>
</defs>
<g class="plotroot xscalable yscalable" id="img-de291bbf-1">
  <g font-size="3.88" font-family="'PT Sans','Helvetica Neue','Helvetica',sans-serif" fill="#564A55" stroke="#000000" stroke-opacity="0.000" id="img-de291bbf-2">
    <g transform="translate(74.56,88.39)">
      <g class="primitive">
        <text text-anchor="middle" dy="0.6em">Parametric bootstrap estimates of σ</text>
      </g>
    </g>
  </g>
  <g class="guide xlabels" font-size="2.82" font-family="'PT Sans Caption','Helvetica Neue','Helvetica',sans-serif" fill="#6C606B" id="img-de291bbf-3">
    <g transform="translate(14.69,81.72)">
      <g class="primitive">
        <text text-anchor="middle" dy="0.6em">0</text>
      </g>
    </g>
    <g transform="translate(44.63,81.72)">
      <g class="primitive">
        <text text-anchor="middle" dy="0.6em">20</text>
      </g>
    </g>
    <g transform="translate(74.56,81.72)">
      <g class="primitive">
        <text text-anchor="middle" dy="0.6em">40</text>
      </g>
    </g>
    <g transform="translate(104.49,81.72)">
      <g class="primitive">
        <text text-anchor="middle" dy="0.6em">60</text>
      </g>
    </g>
    <g transform="translate(134.42,81.72)">
      <g class="primitive">
        <text text-anchor="middle" dy="0.6em">80</text>
      </g>
    </g>
  </g>
  <g clip-path="url(#img-de291bbf-4)">
    <g id="img-de291bbf-5">
      <g pointer-events="visible" stroke-width="0.3" fill="#000000" fill-opacity="0.000" stroke="#000000" stroke-opacity="0.000" class="guide background" id="img-de291bbf-6">
        <g transform="translate(74.56,42.86)" id="img-de291bbf-7">
          <path d="M-61.86,-37.86 L61.86,-37.86 61.86,37.86 -61.86,37.86  z" class="primitive"/>
        </g>
      </g>
      <g class="guide ygridlines xfixed" stroke-dasharray="0.5,0.5" stroke-width="0.2" stroke="#D0D0E0" id="img-de291bbf-8">
        <g transform="translate(74.56,78.71)" id="img-de291bbf-9">
          <path fill="none" d="M-61.86,0 L61.86,0 " class="primitive"/>
        </g>
        <g transform="translate(74.56,66.76)" id="img-de291bbf-10">
          <path fill="none" d="M-61.86,0 L61.86,0 " class="primitive"/>
        </g>
        <g transform="translate(74.56,54.81)" id="img-de291bbf-11">
          <path fill="none" d="M-61.86,0 L61.86,0 " class="primitive"/>
        </g>
        <g transform="translate(74.56,42.86)" id="img-de291bbf-12">
          <path fill="none" d="M-61.86,0 L61.86,0 " class="primitive"/>
        </g>
        <g transform="translate(74.56,30.9)" id="img-de291bbf-13">
          <path fill="none" d="M-61.86,0 L61.86,0 " class="primitive"/>
        </g>
        <g transform="translate(74.56,18.95)" id="img-de291bbf-14">
          <path fill="none" d="M-61.86,0 L61.86,0 " class="primitive"/>
        </g>
        <g transform="translate(74.56,7)" id="img-de291bbf-15">
          <path fill="none" d="M-61.86,0 L61.86,0 " class="primitive"/>
        </g>
      </g>
      <g class="guide xgridlines yfixed" stroke-dasharray="0.5,0.5" stroke-width="0.2" stroke="#D0D0E0" id="img-de291bbf-16">
        <g transform="translate(14.69,42.86)" id="img-de291bbf-17">
          <path fill="none" d="M0,-37.86 L0,37.86 " class="primitive"/>
        </g>
        <g transform="translate(44.63,42.86)" id="img-de291bbf-18">
          <path fill="none" d="M0,-37.86 L0,37.86 " class="primitive"/>
        </g>
        <g transform="translate(74.56,42.86)" id="img-de291bbf-19">
          <path fill="none" d="M0,-37.86 L0,37.86 " class="primitive"/>
        </g>
        <g transform="translate(104.49,42.86)" id="img-de291bbf-20">
          <path fill="none" d="M0,-37.86 L0,37.86 " class="primitive"/>
        </g>
        <g transform="translate(134.42,42.86)" id="img-de291bbf-21">
          <path fill="none" d="M0,-37.86 L0,37.86 " class="primitive"/>
        </g>
      </g>
      <g class="plotpanel" id="img-de291bbf-22">
        <metadata>
          <boundingbox value="12.693333333333328mm 5.0mm 123.72802290397618mm 75.715mm"/>
          <unitbox value="-1.3363621658425162 0.06167329010667225 82.67272433168503 -0.06334658021334451"/>
        </metadata>
        <g stroke-width="0.3" fill="#000000" fill-opacity="0.000" class="geometry" id="img-de291bbf-23">
          <g class="color_LCHab{Float32}(70.0f0,60.0f0,240.0f0)" stroke-dasharray="none" stroke-opacity="1" stroke="#00BFFF" id="img-de291bbf-24">
            <g transform="translate(86.95,59.26)" id="img-de291bbf-25">
              <path fill="none" d="M-45.79,19.46 L-45.43,19.46 -45.07,19.46 -44.71,19.46 -44.36,19.46 -44,19.45 -43.64,19.45 -43.28,19.45 -42.92,19.45 -42.56,19.45 -42.2,19.44 -41.84,19.44 -41.48,19.43 -41.12,19.42 -40.76,19.42 -40.4,19.41 -40.05,19.41 -39.69,19.41 -39.33,19.41 -38.97,19.41 -38.61,19.41 -38.25,19.41 -37.89,19.41 -37.53,19.41 -37.17,19.41 -36.81,19.4 -36.45,19.39 -36.09,19.38 -35.74,19.38 -35.38,19.37 -35.02,19.36 -34.66,19.35 -34.3,19.34 -33.94,19.34 -33.58,19.33 -33.22,19.31 -32.86,19.3 -32.5,19.28 -32.14,19.25 -31.78,19.21 -31.43,19.16 -31.07,19.1 -30.71,19.03 -30.35,18.94 -29.99,18.84 -29.63,18.71 -29.27,18.57 -28.91,18.42 -28.55,18.26 -28.19,18.1 -27.83,17.96 -27.47,17.83 -27.12,17.72 -26.76,17.62 -26.4,17.51 -26.04,17.39 -25.68,17.23 -25.32,17.03 -24.96,16.77 -24.6,16.47 -24.24,16.11 -23.88,15.71 -23.52,15.29 -23.17,14.86 -22.81,14.41 -22.45,13.96 -22.09,13.49 -21.73,13 -21.37,12.47 -21.01,11.9 -20.65,11.27 -20.29,10.58 -19.93,9.83 -19.57,9.03 -19.21,8.18 -18.86,7.32 -18.5,6.45 -18.14,5.58 -17.78,4.72 -17.42,3.86 -17.06,2.97 -16.7,2.04 -16.34,1.05 -15.98,-0.01 -15.62,-1.15 -15.26,-2.35 -14.9,-3.6 -14.55,-4.88 -14.19,-6.18 -13.83,-7.48 -13.47,-8.78 -13.11,-10.1 -12.75,-11.42 -12.39,-12.75 -12.03,-14.09 -11.67,-15.43 -11.31,-16.77 -10.95,-18.08 -10.59,-19.39 -10.24,-20.68 -9.88,-21.97 -9.52,-23.28 -9.16,-24.62 -8.8,-26 -8.44,-27.42 -8.08,-28.89 -7.72,-30.4 -7.36,-31.93 -7,-33.46 -6.64,-34.97 -6.29,-36.45 -5.93,-37.88 -5.57,-39.26 -5.21,-40.58 -4.85,-41.84 -4.49,-43.03 -4.13,-44.17 -3.77,-45.24 -3.41,-46.23 -3.05,-47.14 -2.69,-47.96 -2.33,-48.66 -1.98,-49.24 -1.62,-49.67 -1.26,-49.93 -0.9,-49.99 -0.54,-49.85 -0.18,-49.51 0.18,-49.01 0.54,-48.38 0.9,-47.68 1.26,-46.96 1.62,-46.24 1.98,-45.56 2.33,-44.93 2.69,-44.35 3.05,-43.82 3.41,-43.33 3.77,-42.85 4.13,-42.36 4.49,-41.85 4.85,-41.27 5.21,-40.62 5.57,-39.85 5.93,-38.98 6.29,-37.99 6.64,-36.9 7,-35.72 7.36,-34.49 7.72,-33.22 8.08,-31.97 8.44,-30.74 8.8,-29.56 9.16,-28.44 9.52,-27.36 9.88,-26.31 10.24,-25.26 10.59,-24.18 10.95,-23.05 11.31,-21.84 11.67,-20.54 12.03,-19.16 12.39,-17.71 12.75,-16.19 13.11,-14.62 13.47,-13.01 13.83,-11.38 14.19,-9.74 14.55,-8.12 14.9,-6.55 15.26,-5.05 15.62,-3.65 15.98,-2.39 16.34,-1.26 16.7,-0.27 17.06,0.6 17.42,1.38 17.78,2.08 18.14,2.75 18.5,3.4 18.86,4.05 19.21,4.7 19.57,5.36 19.93,6.03 20.29,6.69 20.65,7.35 21.01,8.01 21.37,8.67 21.73,9.33 22.09,9.99 22.45,10.65 22.81,11.3 23.17,11.95 23.52,12.59 23.88,13.2 24.24,13.77 24.6,14.3 24.96,14.78 25.32,15.2 25.68,15.56 26.04,15.87 26.4,16.13 26.76,16.35 27.12,16.55 27.47,16.74 27.83,16.92 28.19,17.11 28.55,17.3 28.91,17.49 29.27,17.68 29.63,17.86 29.99,18.02 30.35,18.17 30.71,18.3 31.07,18.4 31.43,18.49 31.78,18.57 32.14,18.63 32.5,18.68 32.86,18.72 33.22,18.76 33.58,18.78 33.94,18.8 34.3,18.82 34.66,18.84 35.02,18.86 35.38,18.89 35.74,18.92 36.09,18.96 36.45,19 36.81,19.04 37.17,19.08 37.53,19.12 37.89,19.16 38.25,19.18 38.61,19.21 38.97,19.23 39.33,19.25 39.69,19.27 40.05,19.29 40.4,19.31 40.76,19.34 41.12,19.36 41.48,19.39 41.84,19.41 42.2,19.42 42.56,19.43 42.92,19.44 43.28,19.45 43.64,19.45 44,19.45 44.36,19.45 44.71,19.46 45.07,19.46 45.43,19.46 45.79,19.46 " class="primitive"/>
            </g>
          </g>
        </g>
      </g>
    </g>
  </g>
  <g class="guide ylabels" font-size="2.82" font-family="'PT Sans Caption','Helvetica Neue','Helvetica',sans-serif" fill="#6C606B" id="img-de291bbf-26">
    <g transform="translate(11.69,78.71)" id="img-de291bbf-27">
      <g class="primitive">
        <text text-anchor="end" dy="0.35em">0.00</text>
      </g>
    </g>
    <g transform="translate(11.69,66.76)" id="img-de291bbf-28">
      <g class="primitive">
        <text text-anchor="end" dy="0.35em">0.01</text>
      </g>
    </g>
    <g transform="translate(11.69,54.81)" id="img-de291bbf-29">
      <g class="primitive">
        <text text-anchor="end" dy="0.35em">0.02</text>
      </g>
    </g>
    <g transform="translate(11.69,42.86)" id="img-de291bbf-30">
      <g class="primitive">
        <text text-anchor="end" dy="0.35em">0.03</text>
      </g>
    </g>
    <g transform="translate(11.69,30.9)" id="img-de291bbf-31">
      <g class="primitive">
        <text text-anchor="end" dy="0.35em">0.04</text>
      </g>
    </g>
    <g transform="translate(11.69,18.95)" id="img-de291bbf-32">
      <g class="primitive">
        <text text-anchor="end" dy="0.35em">0.05</text>
      </g>
    </g>
    <g transform="translate(11.69,7)" id="img-de291bbf-33">
      <g class="primitive">
        <text text-anchor="end" dy="0.35em">0.06</text>
      </g>
    </g>
  </g>
</g>
<defs>
  <clipPath id="img-de291bbf-4">
    <path d="M12.69,5 L136.42,5 136.42,80.72 12.69,80.72 " />
  </clipPath>
</defs>
</svg>
