<?xml version="1.0" encoding="UTF-8"?>
<svg xmlns="http://www.w3.org/2000/svg"
     xmlns:xlink="http://www.w3.org/1999/xlink"
     xmlns:gadfly="http://www.gadflyjl.org/ns"
     version="1.2"
     width="141.42mm" height="100mm" viewBox="0 0 141.42 100"
     stroke="none"
     fill="#000000"
     stroke-width="0.3"
     font-size="3.88"
>
<defs>
  <marker id="arrow" markerWidth="15" markerHeight="7" refX="5" refY="3.5" orient="auto" markerUnits="strokeWidth">
    <path d="M0,0 L15,3.5 L0,7 z" stroke="context-stroke" fill="context-stroke"/>
  </marker>
</defs>
<g class="plotroot xscalable yscalable" id="img-5afc7eb7-1">
  <g font-size="3.88" font-family="'PT Sans','Helvetica Neue','Helvetica',sans-serif" fill="#564A55" stroke="#000000" stroke-opacity="0.000" id="img-5afc7eb7-2">
    <g transform="translate(74.56,88.39)">
      <g class="primitive">
        <text text-anchor="middle" dy="0.6em">Parametric bootstrap estimates of σ₁</text>
      </g>
    </g>
  </g>
  <g class="guide xlabels" font-size="2.82" font-family="'PT Sans Caption','Helvetica Neue','Helvetica',sans-serif" fill="#6C606B" id="img-5afc7eb7-3">
    <g transform="translate(14.69,81.72)">
      <g class="primitive">
        <text text-anchor="middle" dy="0.6em">-50</text>
      </g>
    </g>
    <g transform="translate(44.63,81.72)">
      <g class="primitive">
        <text text-anchor="middle" dy="0.6em">0</text>
      </g>
    </g>
    <g transform="translate(74.56,81.72)">
      <g class="primitive">
        <text text-anchor="middle" dy="0.6em">50</text>
      </g>
    </g>
    <g transform="translate(104.49,81.72)">
      <g class="primitive">
        <text text-anchor="middle" dy="0.6em">100</text>
      </g>
    </g>
    <g transform="translate(134.42,81.72)">
      <g class="primitive">
        <text text-anchor="middle" dy="0.6em">150</text>
      </g>
    </g>
  </g>
  <g clip-path="url(#img-5afc7eb7-4)">
    <g id="img-5afc7eb7-5">
      <g pointer-events="visible" stroke-width="0.3" fill="#000000" fill-opacity="0.000" stroke="#000000" stroke-opacity="0.000" class="guide background" id="img-5afc7eb7-6">
        <g transform="translate(74.56,42.86)" id="img-5afc7eb7-7">
          <path d="M-61.86,-37.86 L61.86,-37.86 61.86,37.86 -61.86,37.86  z" class="primitive"/>
        </g>
      </g>
      <g class="guide ygridlines xfixed" stroke-dasharray="0.5,0.5" stroke-width="0.2" stroke="#D0D0E0" id="img-5afc7eb7-8">
        <g transform="translate(74.56,78.71)" id="img-5afc7eb7-9">
          <path fill="none" d="M-61.86,0 L61.86,0 " class="primitive"/>
        </g>
        <g transform="translate(74.56,54.81)" id="img-5afc7eb7-10">
          <path fill="none" d="M-61.86,0 L61.86,0 " class="primitive"/>
        </g>
        <g transform="translate(74.56,30.9)" id="img-5afc7eb7-11">
          <path fill="none" d="M-61.86,0 L61.86,0 " class="primitive"/>
        </g>
        <g transform="translate(74.56,7)" id="img-5afc7eb7-12">
          <path fill="none" d="M-61.86,0 L61.86,0 " class="primitive"/>
        </g>
      </g>
      <g class="guide xgridlines yfixed" stroke-dasharray="0.5,0.5" stroke-width="0.2" stroke="#D0D0E0" id="img-5afc7eb7-13">
        <g transform="translate(14.69,42.86)" id="img-5afc7eb7-14">
          <path fill="none" d="M0,-37.86 L0,37.86 " class="primitive"/>
        </g>
        <g transform="translate(44.63,42.86)" id="img-5afc7eb7-15">
          <path fill="none" d="M0,-37.86 L0,37.86 " class="primitive"/>
        </g>
        <g transform="translate(74.56,42.86)" id="img-5afc7eb7-16">
          <path fill="none" d="M0,-37.86 L0,37.86 " class="primitive"/>
        </g>
        <g transform="translate(104.49,42.86)" id="img-5afc7eb7-17">
          <path fill="none" d="M0,-37.86 L0,37.86 " class="primitive"/>
        </g>
        <g transform="translate(134.42,42.86)" id="img-5afc7eb7-18">
          <path fill="none" d="M0,-37.86 L0,37.86 " class="primitive"/>
        </g>
      </g>
      <g class="plotpanel" id="img-5afc7eb7-19">
        <metadata>
          <boundingbox value="12.693333333333328mm 5.0mm 123.72802290397618mm 75.715mm"/>
          <unitbox value="-53.34090541460629 0.030836645053336127 206.6818108292126 -0.031673290106672254"/>
        </metadata>
        <g stroke-width="0.3" fill="#000000" fill-opacity="0.000" class="geometry" id="img-5afc7eb7-20">
          <g class="color_LCHab{Float32}(70.0f0,60.0f0,240.0f0)" stroke-dasharray="none" stroke-opacity="1" stroke="#00BFFF" id="img-5afc7eb7-21">
            <g transform="translate(72.73,57.43)" id="img-5afc7eb7-22">
              <path fill="none" d="M-33.48,21.27 L-33.22,21.25 -32.96,21.22 -32.69,21.16 -32.43,21.04 -32.17,20.84 -31.91,20.49 -31.64,19.94 -31.38,19.09 -31.12,17.83 -30.86,16.05 -30.59,13.64 -30.33,10.54 -30.07,6.74 -29.81,2.31 -29.54,-2.55 -29.28,-7.57 -29.02,-12.38 -28.76,-16.57 -28.49,-19.76 -28.23,-21.64 -27.97,-22.06 -27.71,-21 -27.44,-18.63 -27.18,-15.25 -26.92,-11.24 -26.65,-7 -26.39,-2.9 -26.13,0.77 -25.87,3.83 -25.6,6.2 -25.34,7.86 -25.08,8.89 -24.82,9.38 -24.55,9.42 -24.29,9.12 -24.03,8.56 -23.77,7.81 -23.5,6.91 -23.24,5.92 -22.98,4.85 -22.72,3.72 -22.45,2.55 -22.19,1.35 -21.93,0.12 -21.67,-1.11 -21.4,-2.36 -21.14,-3.61 -20.88,-4.85 -20.61,-6.08 -20.35,-7.3 -20.09,-8.49 -19.83,-9.67 -19.56,-10.82 -19.3,-11.95 -19.04,-13.07 -18.78,-14.17 -18.51,-15.26 -18.25,-16.35 -17.99,-17.44 -17.73,-18.52 -17.46,-19.6 -17.2,-20.66 -16.94,-21.7 -16.68,-22.71 -16.41,-23.69 -16.15,-24.65 -15.89,-25.57 -15.63,-26.48 -15.36,-27.38 -15.1,-28.27 -14.84,-29.16 -14.57,-30.05 -14.31,-30.95 -14.05,-31.85 -13.79,-32.75 -13.52,-33.65 -13.26,-34.55 -13,-35.46 -12.74,-36.36 -12.47,-37.25 -12.21,-38.12 -11.95,-38.95 -11.69,-39.72 -11.42,-40.39 -11.16,-40.95 -10.9,-41.35 -10.64,-41.6 -10.37,-41.67 -10.11,-41.58 -9.85,-41.34 -9.59,-40.98 -9.32,-40.54 -9.06,-40.05 -8.8,-39.53 -8.53,-39.02 -8.27,-38.53 -8.01,-38.05 -7.75,-37.58 -7.48,-37.11 -7.22,-36.63 -6.96,-36.11 -6.7,-35.55 -6.43,-34.92 -6.17,-34.23 -5.91,-33.47 -5.65,-32.63 -5.38,-31.71 -5.12,-30.71 -4.86,-29.65 -4.6,-28.53 -4.33,-27.37 -4.07,-26.2 -3.81,-25.02 -3.55,-23.87 -3.28,-22.75 -3.02,-21.67 -2.76,-20.64 -2.49,-19.65 -2.23,-18.7 -1.97,-17.78 -1.71,-16.87 -1.44,-15.97 -1.18,-15.07 -0.92,-14.19 -0.66,-13.32 -0.39,-12.47 -0.13,-11.66 0.13,-10.87 0.39,-10.12 0.66,-9.38 0.92,-8.65 1.18,-7.92 1.44,-7.15 1.71,-6.33 1.97,-5.46 2.23,-4.51 2.49,-3.49 2.76,-2.42 3.02,-1.29 3.28,-0.13 3.55,1.03 3.81,2.19 4.07,3.31 4.33,4.37 4.6,5.37 4.86,6.29 5.12,7.13 5.38,7.89 5.65,8.58 5.91,9.2 6.17,9.77 6.43,10.29 6.7,10.77 6.96,11.23 7.22,11.66 7.48,12.08 7.75,12.48 8.01,12.87 8.27,13.24 8.53,13.61 8.8,13.98 9.06,14.34 9.32,14.7 9.59,15.07 9.85,15.45 10.11,15.82 10.37,16.18 10.64,16.54 10.9,16.89 11.16,17.21 11.42,17.52 11.69,17.79 11.95,18.05 12.21,18.28 12.47,18.48 12.74,18.67 13,18.83 13.26,18.98 13.52,19.11 13.79,19.23 14.05,19.33 14.31,19.44 14.57,19.53 14.84,19.62 15.1,19.7 15.36,19.78 15.63,19.86 15.89,19.93 16.15,19.99 16.41,20.06 16.68,20.12 16.94,20.18 17.2,20.25 17.46,20.32 17.73,20.39 17.99,20.47 18.25,20.55 18.51,20.63 18.78,20.7 19.04,20.78 19.3,20.85 19.56,20.91 19.83,20.97 20.09,21.02 20.35,21.06 20.61,21.1 20.88,21.13 21.14,21.16 21.4,21.18 21.67,21.2 21.93,21.22 22.19,21.23 22.45,21.24 22.72,21.25 22.98,21.26 23.24,21.27 23.5,21.27 23.77,21.28 24.03,21.28 24.29,21.28 24.55,21.28 24.82,21.28 25.08,21.28 25.34,21.28 25.6,21.28 25.87,21.28 26.13,21.27 26.39,21.27 26.65,21.26 26.92,21.26 27.18,21.25 27.44,21.25 27.71,21.25 27.97,21.24 28.23,21.24 28.49,21.25 28.76,21.25 29.02,21.25 29.28,21.26 29.54,21.26 29.81,21.27 30.07,21.27 30.33,21.28 30.59,21.28 30.86,21.28 31.12,21.28 31.38,21.28 31.64,21.29 31.91,21.29 32.17,21.29 32.43,21.29 32.69,21.29 32.96,21.29 33.22,21.28 33.48,21.28 " class="primitive"/>
            </g>
          </g>
        </g>
      </g>
    </g>
  </g>
  <g class="guide ylabels" font-size="2.82" font-family="'PT Sans Caption','Helvetica Neue','Helvetica',sans-serif" fill="#6C606B" id="img-5afc7eb7-23">
    <g transform="translate(11.69,78.71)" id="img-5afc7eb7-24">
      <g class="primitive">
        <text text-anchor="end" dy="0.35em">0.00</text>
      </g>
    </g>
    <g transform="translate(11.69,54.81)" id="img-5afc7eb7-25">
      <g class="primitive">
        <text text-anchor="end" dy="0.35em">0.01</text>
      </g>
    </g>
    <g transform="translate(11.69,30.9)" id="img-5afc7eb7-26">
      <g class="primitive">
        <text text-anchor="end" dy="0.35em">0.02</text>
      </g>
    </g>
    <g transform="translate(11.69,7)" id="img-5afc7eb7-27">
      <g class="primitive">
        <text text-anchor="end" dy="0.35em">0.03</text>
      </g>
    </g>
  </g>
</g>
<defs>
  <clipPath id="img-5afc7eb7-4">
    <path d="M12.69,5 L136.42,5 136.42,80.72 12.69,80.72 " />
  </clipPath>
</defs>
</svg>
