<?xml version="1.0" encoding="UTF-8"?>
<svg xmlns="http://www.w3.org/2000/svg"
     xmlns:xlink="http://www.w3.org/1999/xlink"
     xmlns:gadfly="http://www.gadflyjl.org/ns"
     version="1.2"
     width="141.42mm" height="100mm" viewBox="0 0 141.42 100"
     stroke="none"
     fill="#000000"
     stroke-width="0.3"
     font-size="3.88"
>
<defs>
  <marker id="arrow" markerWidth="15" markerHeight="7" refX="5" refY="3.5" orient="auto" markerUnits="strokeWidth">
    <path d="M0,0 L15,3.5 L0,7 z" stroke="context-stroke" fill="context-stroke"/>
  </marker>
</defs>
<g class="plotroot xscalable yscalable" id="img-aed7cdaf-1">
  <g font-size="3.88" font-family="'PT Sans','Helvetica Neue','Helvetica',sans-serif" fill="#564A55" stroke="#000000" stroke-opacity="0.000" id="img-aed7cdaf-2">
    <g transform="translate(75.06,88.39)">
      <g class="primitive">
        <text text-anchor="middle" dy="0.6em">Parametric bootstrap estimates of σ₁</text>
      </g>
    </g>
  </g>
  <g class="guide xlabels" font-size="2.82" font-family="'PT Sans Caption','Helvetica Neue','Helvetica',sans-serif" fill="#6C606B" id="img-aed7cdaf-3">
    <g transform="translate(15.69,81.71)">
      <g class="primitive">
        <text text-anchor="middle" dy="0.6em">0</text>
      </g>
    </g>
    <g transform="translate(75.06,81.71)">
      <g class="primitive">
        <text text-anchor="middle" dy="0.6em">50</text>
      </g>
    </g>
    <g transform="translate(134.42,81.71)">
      <g class="primitive">
        <text text-anchor="middle" dy="0.6em">100</text>
      </g>
    </g>
  </g>
  <g clip-path="url(#img-aed7cdaf-4)">
    <g id="img-aed7cdaf-5">
      <g pointer-events="visible" stroke-width="0.3" fill="#000000" fill-opacity="0.000" stroke="#000000" stroke-opacity="0.000" class="guide background" id="img-aed7cdaf-6">
        <g transform="translate(75.06,42.86)" id="img-aed7cdaf-7">
          <path d="M-61.36,-37.86 L61.36,-37.86 61.36,37.86 -61.36,37.86  z" class="primitive"/>
        </g>
      </g>
      <g class="guide ygridlines xfixed" stroke-dasharray="0.5,0.5" stroke-width="0.2" stroke="#D0D0E0" id="img-aed7cdaf-8">
        <g transform="translate(75.06,78.71)" id="img-aed7cdaf-9">
          <path fill="none" d="M-61.36,0 L61.36,0 " class="primitive"/>
        </g>
        <g transform="translate(75.06,42.86)" id="img-aed7cdaf-10">
          <path fill="none" d="M-61.36,0 L61.36,0 " class="primitive"/>
        </g>
        <g transform="translate(75.06,7)" id="img-aed7cdaf-11">
          <path fill="none" d="M-61.36,0 L61.36,0 " class="primitive"/>
        </g>
      </g>
      <g class="guide xgridlines yfixed" stroke-dasharray="0.5,0.5" stroke-width="0.2" stroke="#D0D0E0" id="img-aed7cdaf-12">
        <g transform="translate(15.69,42.86)" id="img-aed7cdaf-13">
          <path fill="none" d="M0,-37.86 L0,37.86 " class="primitive"/>
        </g>
        <g transform="translate(75.06,42.86)" id="img-aed7cdaf-14">
          <path fill="none" d="M0,-37.86 L0,37.86 " class="primitive"/>
        </g>
        <g transform="translate(134.42,42.86)" id="img-aed7cdaf-15">
          <path fill="none" d="M0,-37.86 L0,37.86 " class="primitive"/>
        </g>
      </g>
      <g class="plotpanel" id="img-aed7cdaf-16">
        <metadata>
          <boundingbox value="13.693333333333328mm 5.0mm 122.72802290397618mm 75.71499999999999mm"/>
          <unitbox value="-1.6845222813299459 1027.8881684445373 103.3690445626599 -1055.7763368890749"/>
        </metadata>
        <g shape-rendering="crispEdges" stroke-width="0.3" id="img-aed7cdaf-17">
          <g class="geometry" fill-opacity="1" stroke="#000000" stroke-opacity="0.000" fill="#00BFFF" id="img-aed7cdaf-18">
            <g transform="translate(16.06,43.43)" id="img-aed7cdaf-19">
              <path d="M-0.4,-35.28 L0.4,-35.28 0.4,35.28 -0.4,35.28  z" class="primitive"/>
            </g>
            <g transform="translate(16.81,78.57)" id="img-aed7cdaf-20">
              <path d="M-0.4,-0.14 L0.4,-0.14 0.4,0.14 -0.4,0.14  z" class="primitive"/>
            </g>
            <g transform="translate(17.55,78.28)" id="img-aed7cdaf-21">
              <path d="M-0.4,-0.43 L0.4,-0.43 0.4,0.43 -0.4,0.43  z" class="primitive"/>
            </g>
            <g transform="translate(18.29,78.36)" id="img-aed7cdaf-22">
              <path d="M-0.4,-0.36 L0.4,-0.36 0.4,0.36 -0.4,0.36  z" class="primitive"/>
            </g>
            <g transform="translate(19.04,78.21)" id="img-aed7cdaf-23">
              <path d="M-0.4,-0.5 L0.4,-0.5 0.4,0.5 -0.4,0.5  z" class="primitive"/>
            </g>
            <g transform="translate(19.78,77.93)" id="img-aed7cdaf-24">
              <path d="M-0.4,-0.79 L0.4,-0.79 0.4,0.79 -0.4,0.79  z" class="primitive"/>
            </g>
            <g transform="translate(20.52,78.18)" id="img-aed7cdaf-25">
              <path d="M-0.4,-0.54 L0.4,-0.54 0.4,0.54 -0.4,0.54  z" class="primitive"/>
            </g>
            <g transform="translate(21.27,77.75)" id="img-aed7cdaf-26">
              <path d="M-0.4,-0.97 L0.4,-0.97 0.4,0.97 -0.4,0.97  z" class="primitive"/>
            </g>
            <g transform="translate(22.01,77.89)" id="img-aed7cdaf-27">
              <path d="M-0.4,-0.82 L0.4,-0.82 0.4,0.82 -0.4,0.82  z" class="primitive"/>
            </g>
            <g transform="translate(22.75,77.96)" id="img-aed7cdaf-28">
              <path d="M-0.4,-0.75 L0.4,-0.75 0.4,0.75 -0.4,0.75  z" class="primitive"/>
            </g>
            <g transform="translate(23.5,77.53)" id="img-aed7cdaf-29">
              <path d="M-0.4,-1.18 L0.4,-1.18 0.4,1.18 -0.4,1.18  z" class="primitive"/>
            </g>
            <g transform="translate(24.24,77.93)" id="img-aed7cdaf-30">
              <path d="M-0.4,-0.79 L0.4,-0.79 0.4,0.79 -0.4,0.79  z" class="primitive"/>
            </g>
            <g transform="translate(24.98,76.96)" id="img-aed7cdaf-31">
              <path d="M-0.4,-1.76 L0.4,-1.76 0.4,1.76 -0.4,1.76  z" class="primitive"/>
            </g>
            <g transform="translate(25.73,77.42)" id="img-aed7cdaf-32">
              <path d="M-0.4,-1.29 L0.4,-1.29 0.4,1.29 -0.4,1.29  z" class="primitive"/>
            </g>
            <g transform="translate(26.47,77.17)" id="img-aed7cdaf-33">
              <path d="M-0.4,-1.54 L0.4,-1.54 0.4,1.54 -0.4,1.54  z" class="primitive"/>
            </g>
            <g transform="translate(27.21,77.1)" id="img-aed7cdaf-34">
              <path d="M-0.4,-1.61 L0.4,-1.61 0.4,1.61 -0.4,1.61  z" class="primitive"/>
            </g>
            <g transform="translate(27.95,76.56)" id="img-aed7cdaf-35">
              <path d="M-0.4,-2.15 L0.4,-2.15 0.4,2.15 -0.4,2.15  z" class="primitive"/>
            </g>
            <g transform="translate(28.7,76.28)" id="img-aed7cdaf-36">
              <path d="M-0.4,-2.44 L0.4,-2.44 0.4,2.44 -0.4,2.44  z" class="primitive"/>
            </g>
            <g transform="translate(29.44,76.96)" id="img-aed7cdaf-37">
              <path d="M-0.4,-1.76 L0.4,-1.76 0.4,1.76 -0.4,1.76  z" class="primitive"/>
            </g>
            <g transform="translate(30.18,75.74)" id="img-aed7cdaf-38">
              <path d="M-0.4,-2.98 L0.4,-2.98 0.4,2.98 -0.4,2.98  z" class="primitive"/>
            </g>
            <g transform="translate(30.93,76.35)" id="img-aed7cdaf-39">
              <path d="M-0.4,-2.37 L0.4,-2.37 0.4,2.37 -0.4,2.37  z" class="primitive"/>
            </g>
            <g transform="translate(31.67,75.63)" id="img-aed7cdaf-40">
              <path d="M-0.4,-3.08 L0.4,-3.08 0.4,3.08 -0.4,3.08  z" class="primitive"/>
            </g>
            <g transform="translate(32.41,75.92)" id="img-aed7cdaf-41">
              <path d="M-0.4,-2.8 L0.4,-2.8 0.4,2.8 -0.4,2.8  z" class="primitive"/>
            </g>
            <g transform="translate(33.16,75.42)" id="img-aed7cdaf-42">
              <path d="M-0.4,-3.3 L0.4,-3.3 0.4,3.3 -0.4,3.3  z" class="primitive"/>
            </g>
            <g transform="translate(33.9,75.38)" id="img-aed7cdaf-43">
              <path d="M-0.4,-3.33 L0.4,-3.33 0.4,3.33 -0.4,3.33  z" class="primitive"/>
            </g>
            <g transform="translate(34.64,75.17)" id="img-aed7cdaf-44">
              <path d="M-0.4,-3.55 L0.4,-3.55 0.4,3.55 -0.4,3.55  z" class="primitive"/>
            </g>
            <g transform="translate(35.39,75.34)" id="img-aed7cdaf-45">
              <path d="M-0.4,-3.37 L0.4,-3.37 0.4,3.37 -0.4,3.37  z" class="primitive"/>
            </g>
            <g transform="translate(36.13,75.06)" id="img-aed7cdaf-46">
              <path d="M-0.4,-3.66 L0.4,-3.66 0.4,3.66 -0.4,3.66  z" class="primitive"/>
            </g>
            <g transform="translate(36.87,75.09)" id="img-aed7cdaf-47">
              <path d="M-0.4,-3.62 L0.4,-3.62 0.4,3.62 -0.4,3.62  z" class="primitive"/>
            </g>
            <g transform="translate(37.62,74.48)" id="img-aed7cdaf-48">
              <path d="M-0.4,-4.23 L0.4,-4.23 0.4,4.23 -0.4,4.23  z" class="primitive"/>
            </g>
            <g transform="translate(38.36,74.13)" id="img-aed7cdaf-49">
              <path d="M-0.4,-4.59 L0.4,-4.59 0.4,4.59 -0.4,4.59  z" class="primitive"/>
            </g>
            <g transform="translate(39.1,74.84)" id="img-aed7cdaf-50">
              <path d="M-0.4,-3.87 L0.4,-3.87 0.4,3.87 -0.4,3.87  z" class="primitive"/>
            </g>
            <g transform="translate(39.84,74.38)" id="img-aed7cdaf-51">
              <path d="M-0.4,-4.34 L0.4,-4.34 0.4,4.34 -0.4,4.34  z" class="primitive"/>
            </g>
            <g transform="translate(40.59,73.55)" id="img-aed7cdaf-52">
              <path d="M-0.4,-5.16 L0.4,-5.16 0.4,5.16 -0.4,5.16  z" class="primitive"/>
            </g>
            <g transform="translate(41.33,74.27)" id="img-aed7cdaf-53">
              <path d="M-0.4,-4.45 L0.4,-4.45 0.4,4.45 -0.4,4.45  z" class="primitive"/>
            </g>
            <g transform="translate(42.07,74.7)" id="img-aed7cdaf-54">
              <path d="M-0.4,-4.02 L0.4,-4.02 0.4,4.02 -0.4,4.02  z" class="primitive"/>
            </g>
            <g transform="translate(42.82,73.62)" id="img-aed7cdaf-55">
              <path d="M-0.4,-5.09 L0.4,-5.09 0.4,5.09 -0.4,5.09  z" class="primitive"/>
            </g>
            <g transform="translate(43.56,73.77)" id="img-aed7cdaf-56">
              <path d="M-0.4,-4.95 L0.4,-4.95 0.4,4.95 -0.4,4.95  z" class="primitive"/>
            </g>
            <g transform="translate(44.3,72.66)" id="img-aed7cdaf-57">
              <path d="M-0.4,-6.06 L0.4,-6.06 0.4,6.06 -0.4,6.06  z" class="primitive"/>
            </g>
            <g transform="translate(45.05,73.87)" id="img-aed7cdaf-58">
              <path d="M-0.4,-4.84 L0.4,-4.84 0.4,4.84 -0.4,4.84  z" class="primitive"/>
            </g>
            <g transform="translate(45.79,73.73)" id="img-aed7cdaf-59">
              <path d="M-0.4,-4.98 L0.4,-4.98 0.4,4.98 -0.4,4.98  z" class="primitive"/>
            </g>
            <g transform="translate(46.53,73.16)" id="img-aed7cdaf-60">
              <path d="M-0.4,-5.56 L0.4,-5.56 0.4,5.56 -0.4,5.56  z" class="primitive"/>
            </g>
            <g transform="translate(47.28,73.48)" id="img-aed7cdaf-61">
              <path d="M-0.4,-5.24 L0.4,-5.24 0.4,5.24 -0.4,5.24  z" class="primitive"/>
            </g>
            <g transform="translate(48.02,72.55)" id="img-aed7cdaf-62">
              <path d="M-0.4,-6.17 L0.4,-6.17 0.4,6.17 -0.4,6.17  z" class="primitive"/>
            </g>
            <g transform="translate(48.76,73.3)" id="img-aed7cdaf-63">
              <path d="M-0.4,-5.41 L0.4,-5.41 0.4,5.41 -0.4,5.41  z" class="primitive"/>
            </g>
            <g transform="translate(49.5,72.66)" id="img-aed7cdaf-64">
              <path d="M-0.4,-6.06 L0.4,-6.06 0.4,6.06 -0.4,6.06  z" class="primitive"/>
            </g>
            <g transform="translate(50.25,71.65)" id="img-aed7cdaf-65">
              <path d="M-0.4,-7.06 L0.4,-7.06 0.4,7.06 -0.4,7.06  z" class="primitive"/>
            </g>
            <g transform="translate(50.99,72.73)" id="img-aed7cdaf-66">
              <path d="M-0.4,-5.99 L0.4,-5.99 0.4,5.99 -0.4,5.99  z" class="primitive"/>
            </g>
            <g transform="translate(51.73,72.91)" id="img-aed7cdaf-67">
              <path d="M-0.4,-5.81 L0.4,-5.81 0.4,5.81 -0.4,5.81  z" class="primitive"/>
            </g>
            <g transform="translate(52.48,72.3)" id="img-aed7cdaf-68">
              <path d="M-0.4,-6.42 L0.4,-6.42 0.4,6.42 -0.4,6.42  z" class="primitive"/>
            </g>
            <g transform="translate(53.22,72.91)" id="img-aed7cdaf-69">
              <path d="M-0.4,-5.81 L0.4,-5.81 0.4,5.81 -0.4,5.81  z" class="primitive"/>
            </g>
            <g transform="translate(53.96,72.87)" id="img-aed7cdaf-70">
              <path d="M-0.4,-5.84 L0.4,-5.84 0.4,5.84 -0.4,5.84  z" class="primitive"/>
            </g>
            <g transform="translate(54.71,73.98)" id="img-aed7cdaf-71">
              <path d="M-0.4,-4.73 L0.4,-4.73 0.4,4.73 -0.4,4.73  z" class="primitive"/>
            </g>
            <g transform="translate(55.45,73.37)" id="img-aed7cdaf-72">
              <path d="M-0.4,-5.34 L0.4,-5.34 0.4,5.34 -0.4,5.34  z" class="primitive"/>
            </g>
            <g transform="translate(56.19,72.94)" id="img-aed7cdaf-73">
              <path d="M-0.4,-5.77 L0.4,-5.77 0.4,5.77 -0.4,5.77  z" class="primitive"/>
            </g>
            <g transform="translate(56.94,72.66)" id="img-aed7cdaf-74">
              <path d="M-0.4,-6.06 L0.4,-6.06 0.4,6.06 -0.4,6.06  z" class="primitive"/>
            </g>
            <g transform="translate(57.68,73.66)" id="img-aed7cdaf-75">
              <path d="M-0.4,-5.06 L0.4,-5.06 0.4,5.06 -0.4,5.06  z" class="primitive"/>
            </g>
            <g transform="translate(58.42,73.41)" id="img-aed7cdaf-76">
              <path d="M-0.4,-5.31 L0.4,-5.31 0.4,5.31 -0.4,5.31  z" class="primitive"/>
            </g>
            <g transform="translate(59.17,73.09)" id="img-aed7cdaf-77">
              <path d="M-0.4,-5.63 L0.4,-5.63 0.4,5.63 -0.4,5.63  z" class="primitive"/>
            </g>
            <g transform="translate(59.91,73.77)" id="img-aed7cdaf-78">
              <path d="M-0.4,-4.95 L0.4,-4.95 0.4,4.95 -0.4,4.95  z" class="primitive"/>
            </g>
            <g transform="translate(60.65,73.69)" id="img-aed7cdaf-79">
              <path d="M-0.4,-5.02 L0.4,-5.02 0.4,5.02 -0.4,5.02  z" class="primitive"/>
            </g>
            <g transform="translate(61.39,73.77)" id="img-aed7cdaf-80">
              <path d="M-0.4,-4.95 L0.4,-4.95 0.4,4.95 -0.4,4.95  z" class="primitive"/>
            </g>
            <g transform="translate(62.14,73.37)" id="img-aed7cdaf-81">
              <path d="M-0.4,-5.34 L0.4,-5.34 0.4,5.34 -0.4,5.34  z" class="primitive"/>
            </g>
            <g transform="translate(62.88,73.98)" id="img-aed7cdaf-82">
              <path d="M-0.4,-4.73 L0.4,-4.73 0.4,4.73 -0.4,4.73  z" class="primitive"/>
            </g>
            <g transform="translate(63.62,74.73)" id="img-aed7cdaf-83">
              <path d="M-0.4,-3.98 L0.4,-3.98 0.4,3.98 -0.4,3.98  z" class="primitive"/>
            </g>
            <g transform="translate(64.37,74.66)" id="img-aed7cdaf-84">
              <path d="M-0.4,-4.05 L0.4,-4.05 0.4,4.05 -0.4,4.05  z" class="primitive"/>
            </g>
            <g transform="translate(65.11,75.02)" id="img-aed7cdaf-85">
              <path d="M-0.4,-3.69 L0.4,-3.69 0.4,3.69 -0.4,3.69  z" class="primitive"/>
            </g>
            <g transform="translate(65.85,74.52)" id="img-aed7cdaf-86">
              <path d="M-0.4,-4.2 L0.4,-4.2 0.4,4.2 -0.4,4.2  z" class="primitive"/>
            </g>
            <g transform="translate(66.6,75.02)" id="img-aed7cdaf-87">
              <path d="M-0.4,-3.69 L0.4,-3.69 0.4,3.69 -0.4,3.69  z" class="primitive"/>
            </g>
            <g transform="translate(67.34,75.27)" id="img-aed7cdaf-88">
              <path d="M-0.4,-3.44 L0.4,-3.44 0.4,3.44 -0.4,3.44  z" class="primitive"/>
            </g>
            <g transform="translate(68.08,75.13)" id="img-aed7cdaf-89">
              <path d="M-0.4,-3.59 L0.4,-3.59 0.4,3.59 -0.4,3.59  z" class="primitive"/>
            </g>
            <g transform="translate(68.83,74.52)" id="img-aed7cdaf-90">
              <path d="M-0.4,-4.2 L0.4,-4.2 0.4,4.2 -0.4,4.2  z" class="primitive"/>
            </g>
            <g transform="translate(69.57,75.56)" id="img-aed7cdaf-91">
              <path d="M-0.4,-3.16 L0.4,-3.16 0.4,3.16 -0.4,3.16  z" class="primitive"/>
            </g>
            <g transform="translate(70.31,75.88)" id="img-aed7cdaf-92">
              <path d="M-0.4,-2.83 L0.4,-2.83 0.4,2.83 -0.4,2.83  z" class="primitive"/>
            </g>
            <g transform="translate(71.06,75.49)" id="img-aed7cdaf-93">
              <path d="M-0.4,-3.23 L0.4,-3.23 0.4,3.23 -0.4,3.23  z" class="primitive"/>
            </g>
            <g transform="translate(71.8,75.95)" id="img-aed7cdaf-94">
              <path d="M-0.4,-2.76 L0.4,-2.76 0.4,2.76 -0.4,2.76  z" class="primitive"/>
            </g>
            <g transform="translate(72.54,75.88)" id="img-aed7cdaf-95">
              <path d="M-0.4,-2.83 L0.4,-2.83 0.4,2.83 -0.4,2.83  z" class="primitive"/>
            </g>
            <g transform="translate(73.28,76.2)" id="img-aed7cdaf-96">
              <path d="M-0.4,-2.51 L0.4,-2.51 0.4,2.51 -0.4,2.51  z" class="primitive"/>
            </g>
            <g transform="translate(74.03,75.67)" id="img-aed7cdaf-97">
              <path d="M-0.4,-3.05 L0.4,-3.05 0.4,3.05 -0.4,3.05  z" class="primitive"/>
            </g>
            <g transform="translate(74.77,75.7)" id="img-aed7cdaf-98">
              <path d="M-0.4,-3.01 L0.4,-3.01 0.4,3.01 -0.4,3.01  z" class="primitive"/>
            </g>
            <g transform="translate(75.51,76.31)" id="img-aed7cdaf-99">
              <path d="M-0.4,-2.4 L0.4,-2.4 0.4,2.4 -0.4,2.4  z" class="primitive"/>
            </g>
            <g transform="translate(76.26,76.35)" id="img-aed7cdaf-100">
              <path d="M-0.4,-2.37 L0.4,-2.37 0.4,2.37 -0.4,2.37  z" class="primitive"/>
            </g>
            <g transform="translate(77,76.28)" id="img-aed7cdaf-101">
              <path d="M-0.4,-2.44 L0.4,-2.44 0.4,2.44 -0.4,2.44  z" class="primitive"/>
            </g>
            <g transform="translate(77.74,76.49)" id="img-aed7cdaf-102">
              <path d="M-0.4,-2.22 L0.4,-2.22 0.4,2.22 -0.4,2.22  z" class="primitive"/>
            </g>
            <g transform="translate(78.49,76.81)" id="img-aed7cdaf-103">
              <path d="M-0.4,-1.9 L0.4,-1.9 0.4,1.9 -0.4,1.9  z" class="primitive"/>
            </g>
            <g transform="translate(79.23,77.03)" id="img-aed7cdaf-104">
              <path d="M-0.4,-1.69 L0.4,-1.69 0.4,1.69 -0.4,1.69  z" class="primitive"/>
            </g>
            <g transform="translate(79.97,77.68)" id="img-aed7cdaf-105">
              <path d="M-0.4,-1.04 L0.4,-1.04 0.4,1.04 -0.4,1.04  z" class="primitive"/>
            </g>
            <g transform="translate(80.72,77.21)" id="img-aed7cdaf-106">
              <path d="M-0.4,-1.51 L0.4,-1.51 0.4,1.51 -0.4,1.51  z" class="primitive"/>
            </g>
            <g transform="translate(81.46,77.28)" id="img-aed7cdaf-107">
              <path d="M-0.4,-1.43 L0.4,-1.43 0.4,1.43 -0.4,1.43  z" class="primitive"/>
            </g>
            <g transform="translate(82.2,77.75)" id="img-aed7cdaf-108">
              <path d="M-0.4,-0.97 L0.4,-0.97 0.4,0.97 -0.4,0.97  z" class="primitive"/>
            </g>
            <g transform="translate(82.94,77.75)" id="img-aed7cdaf-109">
              <path d="M-0.4,-0.97 L0.4,-0.97 0.4,0.97 -0.4,0.97  z" class="primitive"/>
            </g>
            <g transform="translate(83.69,77.78)" id="img-aed7cdaf-110">
              <path d="M-0.4,-0.93 L0.4,-0.93 0.4,0.93 -0.4,0.93  z" class="primitive"/>
            </g>
            <g transform="translate(84.43,77.39)" id="img-aed7cdaf-111">
              <path d="M-0.4,-1.33 L0.4,-1.33 0.4,1.33 -0.4,1.33  z" class="primitive"/>
            </g>
            <g transform="translate(85.17,77.82)" id="img-aed7cdaf-112">
              <path d="M-0.4,-0.9 L0.4,-0.9 0.4,0.9 -0.4,0.9  z" class="primitive"/>
            </g>
            <g transform="translate(85.92,77.78)" id="img-aed7cdaf-113">
              <path d="M-0.4,-0.93 L0.4,-0.93 0.4,0.93 -0.4,0.93  z" class="primitive"/>
            </g>
            <g transform="translate(86.66,77.89)" id="img-aed7cdaf-114">
              <path d="M-0.4,-0.82 L0.4,-0.82 0.4,0.82 -0.4,0.82  z" class="primitive"/>
            </g>
            <g transform="translate(87.4,78.21)" id="img-aed7cdaf-115">
              <path d="M-0.4,-0.5 L0.4,-0.5 0.4,0.5 -0.4,0.5  z" class="primitive"/>
            </g>
            <g transform="translate(88.15,78.03)" id="img-aed7cdaf-116">
              <path d="M-0.4,-0.68 L0.4,-0.68 0.4,0.68 -0.4,0.68  z" class="primitive"/>
            </g>
            <g transform="translate(88.89,77.85)" id="img-aed7cdaf-117">
              <path d="M-0.4,-0.86 L0.4,-0.86 0.4,0.86 -0.4,0.86  z" class="primitive"/>
            </g>
            <g transform="translate(89.63,78.07)" id="img-aed7cdaf-118">
              <path d="M-0.4,-0.65 L0.4,-0.65 0.4,0.65 -0.4,0.65  z" class="primitive"/>
            </g>
            <g transform="translate(90.38,77.85)" id="img-aed7cdaf-119">
              <path d="M-0.4,-0.86 L0.4,-0.86 0.4,0.86 -0.4,0.86  z" class="primitive"/>
            </g>
            <g transform="translate(91.12,78.32)" id="img-aed7cdaf-120">
              <path d="M-0.4,-0.39 L0.4,-0.39 0.4,0.39 -0.4,0.39  z" class="primitive"/>
            </g>
            <g transform="translate(91.86,78.32)" id="img-aed7cdaf-121">
              <path d="M-0.4,-0.39 L0.4,-0.39 0.4,0.39 -0.4,0.39  z" class="primitive"/>
            </g>
            <g transform="translate(92.61,78.32)" id="img-aed7cdaf-122">
              <path d="M-0.4,-0.39 L0.4,-0.39 0.4,0.39 -0.4,0.39  z" class="primitive"/>
            </g>
            <g transform="translate(93.35,78.43)" id="img-aed7cdaf-123">
              <path d="M-0.4,-0.29 L0.4,-0.29 0.4,0.29 -0.4,0.29  z" class="primitive"/>
            </g>
            <g transform="translate(94.09,78.28)" id="img-aed7cdaf-124">
              <path d="M-0.4,-0.43 L0.4,-0.43 0.4,0.43 -0.4,0.43  z" class="primitive"/>
            </g>
            <g transform="translate(94.83,78.39)" id="img-aed7cdaf-125">
              <path d="M-0.4,-0.32 L0.4,-0.32 0.4,0.32 -0.4,0.32  z" class="primitive"/>
            </g>
            <g transform="translate(95.58,78.61)" id="img-aed7cdaf-126">
              <path d="M-0.4,-0.11 L0.4,-0.11 0.4,0.11 -0.4,0.11  z" class="primitive"/>
            </g>
            <g transform="translate(96.32,78.5)" id="img-aed7cdaf-127">
              <path d="M-0.4,-0.22 L0.4,-0.22 0.4,0.22 -0.4,0.22  z" class="primitive"/>
            </g>
            <g transform="translate(97.06,78.32)" id="img-aed7cdaf-128">
              <path d="M-0.4,-0.39 L0.4,-0.39 0.4,0.39 -0.4,0.39  z" class="primitive"/>
            </g>
            <g transform="translate(97.81,78.64)" id="img-aed7cdaf-129">
              <path d="M-0.4,-0.07 L0.4,-0.07 0.4,0.07 -0.4,0.07  z" class="primitive"/>
            </g>
            <g transform="translate(98.55,78.54)" id="img-aed7cdaf-130">
              <path d="M-0.4,-0.18 L0.4,-0.18 0.4,0.18 -0.4,0.18  z" class="primitive"/>
            </g>
            <g transform="translate(99.29,78.54)" id="img-aed7cdaf-131">
              <path d="M-0.4,-0.18 L0.4,-0.18 0.4,0.18 -0.4,0.18  z" class="primitive"/>
            </g>
            <g transform="translate(100.04,78.57)" id="img-aed7cdaf-132">
              <path d="M-0.4,-0.14 L0.4,-0.14 0.4,0.14 -0.4,0.14  z" class="primitive"/>
            </g>
            <g transform="translate(100.78,78.43)" id="img-aed7cdaf-133">
              <path d="M-0.4,-0.29 L0.4,-0.29 0.4,0.29 -0.4,0.29  z" class="primitive"/>
            </g>
            <g transform="translate(101.52,78.61)" id="img-aed7cdaf-134">
              <path d="M-0.4,-0.11 L0.4,-0.11 0.4,0.11 -0.4,0.11  z" class="primitive"/>
            </g>
            <g transform="translate(102.27,78.57)" id="img-aed7cdaf-135">
              <path d="M-0.4,-0.14 L0.4,-0.14 0.4,0.14 -0.4,0.14  z" class="primitive"/>
            </g>
            <g transform="translate(103.01,78.72)" id="img-aed7cdaf-136">
              <path d="M-0.4,-0 L0.4,-0 0.4,0 -0.4,0  z" class="primitive"/>
            </g>
            <g transform="translate(103.75,78.57)" id="img-aed7cdaf-137">
              <path d="M-0.4,-0.14 L0.4,-0.14 0.4,0.14 -0.4,0.14  z" class="primitive"/>
            </g>
            <g transform="translate(104.5,78.61)" id="img-aed7cdaf-138">
              <path d="M-0.4,-0.11 L0.4,-0.11 0.4,0.11 -0.4,0.11  z" class="primitive"/>
            </g>
            <g transform="translate(105.24,78.64)" id="img-aed7cdaf-139">
              <path d="M-0.4,-0.07 L0.4,-0.07 0.4,0.07 -0.4,0.07  z" class="primitive"/>
            </g>
            <g transform="translate(105.98,78.5)" id="img-aed7cdaf-140">
              <path d="M-0.4,-0.22 L0.4,-0.22 0.4,0.22 -0.4,0.22  z" class="primitive"/>
            </g>
            <g transform="translate(106.72,78.61)" id="img-aed7cdaf-141">
              <path d="M-0.4,-0.11 L0.4,-0.11 0.4,0.11 -0.4,0.11  z" class="primitive"/>
            </g>
            <g transform="translate(107.47,78.72)" id="img-aed7cdaf-142">
              <path d="M-0.4,-0 L0.4,-0 0.4,0 -0.4,0  z" class="primitive"/>
            </g>
            <g transform="translate(108.21,78.68)" id="img-aed7cdaf-143">
              <path d="M-0.4,-0.04 L0.4,-0.04 0.4,0.04 -0.4,0.04  z" class="primitive"/>
            </g>
            <g transform="translate(108.95,78.64)" id="img-aed7cdaf-144">
              <path d="M-0.4,-0.07 L0.4,-0.07 0.4,0.07 -0.4,0.07  z" class="primitive"/>
            </g>
            <g transform="translate(109.7,78.68)" id="img-aed7cdaf-145">
              <path d="M-0.4,-0.04 L0.4,-0.04 0.4,0.04 -0.4,0.04  z" class="primitive"/>
            </g>
            <g transform="translate(110.44,78.72)" id="img-aed7cdaf-146">
              <path d="M-0.4,-0 L0.4,-0 0.4,0 -0.4,0  z" class="primitive"/>
            </g>
            <g transform="translate(111.18,78.68)" id="img-aed7cdaf-147">
              <path d="M-0.4,-0.04 L0.4,-0.04 0.4,0.04 -0.4,0.04  z" class="primitive"/>
            </g>
            <g transform="translate(111.93,78.72)" id="img-aed7cdaf-148">
              <path d="M-0.4,-0 L0.4,-0 0.4,0 -0.4,0  z" class="primitive"/>
            </g>
            <g transform="translate(112.67,78.72)" id="img-aed7cdaf-149">
              <path d="M-0.4,-0 L0.4,-0 0.4,0 -0.4,0  z" class="primitive"/>
            </g>
            <g transform="translate(113.41,78.72)" id="img-aed7cdaf-150">
              <path d="M-0.4,-0 L0.4,-0 0.4,0 -0.4,0  z" class="primitive"/>
            </g>
            <g transform="translate(114.16,78.68)" id="img-aed7cdaf-151">
              <path d="M-0.4,-0.04 L0.4,-0.04 0.4,0.04 -0.4,0.04  z" class="primitive"/>
            </g>
            <g transform="translate(114.9,78.72)" id="img-aed7cdaf-152">
              <path d="M-0.4,-0 L0.4,-0 0.4,0 -0.4,0  z" class="primitive"/>
            </g>
            <g transform="translate(115.64,78.72)" id="img-aed7cdaf-153">
              <path d="M-0.4,-0 L0.4,-0 0.4,0 -0.4,0  z" class="primitive"/>
            </g>
            <g transform="translate(116.38,78.72)" id="img-aed7cdaf-154">
              <path d="M-0.4,-0 L0.4,-0 0.4,0 -0.4,0  z" class="primitive"/>
            </g>
            <g transform="translate(117.13,78.72)" id="img-aed7cdaf-155">
              <path d="M-0.4,-0 L0.4,-0 0.4,0 -0.4,0  z" class="primitive"/>
            </g>
            <g transform="translate(117.87,78.72)" id="img-aed7cdaf-156">
              <path d="M-0.4,-0 L0.4,-0 0.4,0 -0.4,0  z" class="primitive"/>
            </g>
            <g transform="translate(118.61,78.72)" id="img-aed7cdaf-157">
              <path d="M-0.4,-0 L0.4,-0 0.4,0 -0.4,0  z" class="primitive"/>
            </g>
            <g transform="translate(119.36,78.72)" id="img-aed7cdaf-158">
              <path d="M-0.4,-0 L0.4,-0 0.4,0 -0.4,0  z" class="primitive"/>
            </g>
            <g transform="translate(120.1,78.72)" id="img-aed7cdaf-159">
              <path d="M-0.4,-0 L0.4,-0 0.4,0 -0.4,0  z" class="primitive"/>
            </g>
            <g transform="translate(120.84,78.72)" id="img-aed7cdaf-160">
              <path d="M-0.4,-0 L0.4,-0 0.4,0 -0.4,0  z" class="primitive"/>
            </g>
            <g transform="translate(121.59,78.72)" id="img-aed7cdaf-161">
              <path d="M-0.4,-0 L0.4,-0 0.4,0 -0.4,0  z" class="primitive"/>
            </g>
            <g transform="translate(122.33,78.72)" id="img-aed7cdaf-162">
              <path d="M-0.4,-0 L0.4,-0 0.4,0 -0.4,0  z" class="primitive"/>
            </g>
            <g transform="translate(123.07,78.72)" id="img-aed7cdaf-163">
              <path d="M-0.4,-0 L0.4,-0 0.4,0 -0.4,0  z" class="primitive"/>
            </g>
            <g transform="translate(123.82,78.72)" id="img-aed7cdaf-164">
              <path d="M-0.4,-0 L0.4,-0 0.4,0 -0.4,0  z" class="primitive"/>
            </g>
            <g transform="translate(124.56,78.72)" id="img-aed7cdaf-165">
              <path d="M-0.4,-0 L0.4,-0 0.4,0 -0.4,0  z" class="primitive"/>
            </g>
            <g transform="translate(125.3,78.72)" id="img-aed7cdaf-166">
              <path d="M-0.4,-0 L0.4,-0 0.4,0 -0.4,0  z" class="primitive"/>
            </g>
            <g transform="translate(126.05,78.72)" id="img-aed7cdaf-167">
              <path d="M-0.4,-0 L0.4,-0 0.4,0 -0.4,0  z" class="primitive"/>
            </g>
            <g transform="translate(126.79,78.68)" id="img-aed7cdaf-168">
              <path d="M-0.4,-0.04 L0.4,-0.04 0.4,0.04 -0.4,0.04  z" class="primitive"/>
            </g>
          </g>
        </g>
      </g>
    </g>
  </g>
  <g class="guide ylabels" font-size="2.82" font-family="'PT Sans Caption','Helvetica Neue','Helvetica',sans-serif" fill="#6C606B" id="img-aed7cdaf-169">
    <g transform="translate(12.69,78.71)" id="img-aed7cdaf-170">
      <g class="primitive">
        <text text-anchor="end" dy="0.35em">0</text>
      </g>
    </g>
    <g transform="translate(12.69,42.86)" id="img-aed7cdaf-171">
      <g class="primitive">
        <text text-anchor="end" dy="0.35em">500</text>
      </g>
    </g>
    <g transform="translate(12.69,7)" id="img-aed7cdaf-172">
      <g class="primitive">
        <text text-anchor="end" dy="0.35em">1000</text>
      </g>
    </g>
  </g>
</g>
<defs>
  <clipPath id="img-aed7cdaf-4">
    <path d="M13.69,5 L136.42,5 136.42,80.71 13.69,80.71 " />
  </clipPath>
</defs>
</svg>
