<?xml version="1.0" encoding="UTF-8"?>
<svg xmlns="http://www.w3.org/2000/svg"
     xmlns:xlink="http://www.w3.org/1999/xlink"
     xmlns:gadfly="http://www.gadflyjl.org/ns"
     version="1.2"
     width="141.42mm" height="100mm" viewBox="0 0 141.42 100"
     stroke="none"
     fill="#000000"
     stroke-width="0.3"
     font-size="3.88"
>
<defs>
  <marker id="arrow" markerWidth="15" markerHeight="7" refX="5" refY="3.5" orient="auto" markerUnits="strokeWidth">
    <path d="M0,0 L15,3.5 L0,7 z" stroke="context-stroke" fill="context-stroke"/>
  </marker>
</defs>
<g class="plotroot xscalable yscalable" id="img-57ad6ca6-1">
  <g font-size="3.88" font-family="'PT Sans','Helvetica Neue','Helvetica',sans-serif" fill="#564A55" stroke="#000000" stroke-opacity="0.000" id="img-57ad6ca6-2">
    <g transform="translate(74.22,88.39)">
      <g class="primitive">
        <text text-anchor="middle" dy="0.6em">Parametric bootstrap samples of correlation of random effects</text>
      </g>
    </g>
  </g>
  <g class="guide xlabels" font-size="2.82" font-family="'PT Sans Caption','Helvetica Neue','Helvetica',sans-serif" fill="#6C606B" id="img-57ad6ca6-3">
    <g transform="translate(14.02,81.72)">
      <g class="primitive">
        <text text-anchor="middle" dy="0.6em">-1.0</text>
      </g>
    </g>
    <g transform="translate(44.12,81.72)">
      <g class="primitive">
        <text text-anchor="middle" dy="0.6em">-0.5</text>
      </g>
    </g>
    <g transform="translate(74.22,81.72)">
      <g class="primitive">
        <text text-anchor="middle" dy="0.6em">0.0</text>
      </g>
    </g>
    <g transform="translate(104.32,81.72)">
      <g class="primitive">
        <text text-anchor="middle" dy="0.6em">0.5</text>
      </g>
    </g>
    <g transform="translate(134.42,81.72)">
      <g class="primitive">
        <text text-anchor="middle" dy="0.6em">1.0</text>
      </g>
    </g>
  </g>
  <g clip-path="url(#img-57ad6ca6-4)">
    <g id="img-57ad6ca6-5">
      <g pointer-events="visible" stroke-width="0.3" fill="#000000" fill-opacity="0.000" stroke="#000000" stroke-opacity="0.000" class="guide background" id="img-57ad6ca6-6">
        <g transform="translate(74.22,42.86)" id="img-57ad6ca6-7">
          <path d="M-62.2,-37.86 L62.2,-37.86 62.2,37.86 -62.2,37.86  z" class="primitive"/>
        </g>
      </g>
      <g class="guide ygridlines xfixed" stroke-dasharray="0.5,0.5" stroke-width="0.2" stroke="#D0D0E0" id="img-57ad6ca6-8">
        <g transform="translate(74.22,78.71)" id="img-57ad6ca6-9">
          <path fill="none" d="M-62.2,0 L62.2,0 " class="primitive"/>
        </g>
        <g transform="translate(74.22,60.79)" id="img-57ad6ca6-10">
          <path fill="none" d="M-62.2,0 L62.2,0 " class="primitive"/>
        </g>
        <g transform="translate(74.22,42.86)" id="img-57ad6ca6-11">
          <path fill="none" d="M-62.2,0 L62.2,0 " class="primitive"/>
        </g>
        <g transform="translate(74.22,24.93)" id="img-57ad6ca6-12">
          <path fill="none" d="M-62.2,0 L62.2,0 " class="primitive"/>
        </g>
        <g transform="translate(74.22,7)" id="img-57ad6ca6-13">
          <path fill="none" d="M-62.2,0 L62.2,0 " class="primitive"/>
        </g>
      </g>
      <g class="guide xgridlines yfixed" stroke-dasharray="0.5,0.5" stroke-width="0.2" stroke="#D0D0E0" id="img-57ad6ca6-14">
        <g transform="translate(14.02,42.86)" id="img-57ad6ca6-15">
          <path fill="none" d="M0,-37.86 L0,37.86 " class="primitive"/>
        </g>
        <g transform="translate(44.12,42.86)" id="img-57ad6ca6-16">
          <path fill="none" d="M0,-37.86 L0,37.86 " class="primitive"/>
        </g>
        <g transform="translate(74.22,42.86)" id="img-57ad6ca6-17">
          <path fill="none" d="M0,-37.86 L0,37.86 " class="primitive"/>
        </g>
        <g transform="translate(104.32,42.86)" id="img-57ad6ca6-18">
          <path fill="none" d="M0,-37.86 L0,37.86 " class="primitive"/>
        </g>
        <g transform="translate(134.42,42.86)" id="img-57ad6ca6-19">
          <path fill="none" d="M0,-37.86 L0,37.86 " class="primitive"/>
        </g>
      </g>
      <g class="plotpanel" id="img-57ad6ca6-20">
        <metadata>
          <boundingbox value="12.019999999999996mm 5.0mm 124.40135623730951mm 75.715mm"/>
          <unitbox value="-1.033222217132804 411.15526737781494 2.066444434265608 -422.31053475563"/>
        </metadata>
        <g shape-rendering="crispEdges" stroke-width="0.3" id="img-57ad6ca6-21">
          <g class="geometry" fill-opacity="1" stroke="#000000" stroke-opacity="0.000" fill="#00BFFF" id="img-57ad6ca6-22">
            <g transform="translate(19.1,78.63)" id="img-57ad6ca6-23">
              <path d="M-0.41,-0.09 L0.41,-0.09 0.41,0.09 -0.41,0.09  z" class="primitive"/>
            </g>
            <g transform="translate(19.87,78.72)" id="img-57ad6ca6-24">
              <path d="M-0.41,-0 L0.41,-0 0.41,0 -0.41,0  z" class="primitive"/>
            </g>
            <g transform="translate(20.65,78.72)" id="img-57ad6ca6-25">
              <path d="M-0.41,-0 L0.41,-0 0.41,0 -0.41,0  z" class="primitive"/>
            </g>
            <g transform="translate(21.42,78.72)" id="img-57ad6ca6-26">
              <path d="M-0.41,-0 L0.41,-0 0.41,0 -0.41,0  z" class="primitive"/>
            </g>
            <g transform="translate(22.19,78.72)" id="img-57ad6ca6-27">
              <path d="M-0.41,-0 L0.41,-0 0.41,0 -0.41,0  z" class="primitive"/>
            </g>
            <g transform="translate(22.96,78.72)" id="img-57ad6ca6-28">
              <path d="M-0.41,-0 L0.41,-0 0.41,0 -0.41,0  z" class="primitive"/>
            </g>
            <g transform="translate(23.73,78.72)" id="img-57ad6ca6-29">
              <path d="M-0.41,-0 L0.41,-0 0.41,0 -0.41,0  z" class="primitive"/>
            </g>
            <g transform="translate(24.5,78.72)" id="img-57ad6ca6-30">
              <path d="M-0.41,-0 L0.41,-0 0.41,0 -0.41,0  z" class="primitive"/>
            </g>
            <g transform="translate(25.27,78.63)" id="img-57ad6ca6-31">
              <path d="M-0.41,-0.09 L0.41,-0.09 0.41,0.09 -0.41,0.09  z" class="primitive"/>
            </g>
            <g transform="translate(26.04,78.54)" id="img-57ad6ca6-32">
              <path d="M-0.41,-0.18 L0.41,-0.18 0.41,0.18 -0.41,0.18  z" class="primitive"/>
            </g>
            <g transform="translate(26.82,78.54)" id="img-57ad6ca6-33">
              <path d="M-0.41,-0.18 L0.41,-0.18 0.41,0.18 -0.41,0.18  z" class="primitive"/>
            </g>
            <g transform="translate(27.59,78.54)" id="img-57ad6ca6-34">
              <path d="M-0.41,-0.18 L0.41,-0.18 0.41,0.18 -0.41,0.18  z" class="primitive"/>
            </g>
            <g transform="translate(28.36,78.72)" id="img-57ad6ca6-35">
              <path d="M-0.41,-0 L0.41,-0 0.41,0 -0.41,0  z" class="primitive"/>
            </g>
            <g transform="translate(29.13,78.54)" id="img-57ad6ca6-36">
              <path d="M-0.41,-0.18 L0.41,-0.18 0.41,0.18 -0.41,0.18  z" class="primitive"/>
            </g>
            <g transform="translate(29.9,78.54)" id="img-57ad6ca6-37">
              <path d="M-0.41,-0.18 L0.41,-0.18 0.41,0.18 -0.41,0.18  z" class="primitive"/>
            </g>
            <g transform="translate(30.67,78.27)" id="img-57ad6ca6-38">
              <path d="M-0.41,-0.45 L0.41,-0.45 0.41,0.45 -0.41,0.45  z" class="primitive"/>
            </g>
            <g transform="translate(31.44,78)" id="img-57ad6ca6-39">
              <path d="M-0.41,-0.72 L0.41,-0.72 0.41,0.72 -0.41,0.72  z" class="primitive"/>
            </g>
            <g transform="translate(32.22,78.63)" id="img-57ad6ca6-40">
              <path d="M-0.41,-0.09 L0.41,-0.09 0.41,0.09 -0.41,0.09  z" class="primitive"/>
            </g>
            <g transform="translate(32.99,77.91)" id="img-57ad6ca6-41">
              <path d="M-0.41,-0.81 L0.41,-0.81 0.41,0.81 -0.41,0.81  z" class="primitive"/>
            </g>
            <g transform="translate(33.76,78.18)" id="img-57ad6ca6-42">
              <path d="M-0.41,-0.54 L0.41,-0.54 0.41,0.54 -0.41,0.54  z" class="primitive"/>
            </g>
            <g transform="translate(34.53,78.54)" id="img-57ad6ca6-43">
              <path d="M-0.41,-0.18 L0.41,-0.18 0.41,0.18 -0.41,0.18  z" class="primitive"/>
            </g>
            <g transform="translate(35.3,78)" id="img-57ad6ca6-44">
              <path d="M-0.41,-0.72 L0.41,-0.72 0.41,0.72 -0.41,0.72  z" class="primitive"/>
            </g>
            <g transform="translate(36.07,78.09)" id="img-57ad6ca6-45">
              <path d="M-0.41,-0.63 L0.41,-0.63 0.41,0.63 -0.41,0.63  z" class="primitive"/>
            </g>
            <g transform="translate(36.84,78)" id="img-57ad6ca6-46">
              <path d="M-0.41,-0.72 L0.41,-0.72 0.41,0.72 -0.41,0.72  z" class="primitive"/>
            </g>
            <g transform="translate(37.62,77.55)" id="img-57ad6ca6-47">
              <path d="M-0.41,-1.17 L0.41,-1.17 0.41,1.17 -0.41,1.17  z" class="primitive"/>
            </g>
            <g transform="translate(38.39,77.01)" id="img-57ad6ca6-48">
              <path d="M-0.41,-1.7 L0.41,-1.7 0.41,1.7 -0.41,1.7  z" class="primitive"/>
            </g>
            <g transform="translate(39.16,77.1)" id="img-57ad6ca6-49">
              <path d="M-0.41,-1.61 L0.41,-1.61 0.41,1.61 -0.41,1.61  z" class="primitive"/>
            </g>
            <g transform="translate(39.93,77.55)" id="img-57ad6ca6-50">
              <path d="M-0.41,-1.17 L0.41,-1.17 0.41,1.17 -0.41,1.17  z" class="primitive"/>
            </g>
            <g transform="translate(40.7,77.19)" id="img-57ad6ca6-51">
              <path d="M-0.41,-1.52 L0.41,-1.52 0.41,1.52 -0.41,1.52  z" class="primitive"/>
            </g>
            <g transform="translate(41.47,76.83)" id="img-57ad6ca6-52">
              <path d="M-0.41,-1.88 L0.41,-1.88 0.41,1.88 -0.41,1.88  z" class="primitive"/>
            </g>
            <g transform="translate(42.24,77.1)" id="img-57ad6ca6-53">
              <path d="M-0.41,-1.61 L0.41,-1.61 0.41,1.61 -0.41,1.61  z" class="primitive"/>
            </g>
            <g transform="translate(43.01,76.65)" id="img-57ad6ca6-54">
              <path d="M-0.41,-2.06 L0.41,-2.06 0.41,2.06 -0.41,2.06  z" class="primitive"/>
            </g>
            <g transform="translate(43.79,76.74)" id="img-57ad6ca6-55">
              <path d="M-0.41,-1.97 L0.41,-1.97 0.41,1.97 -0.41,1.97  z" class="primitive"/>
            </g>
            <g transform="translate(44.56,75.04)" id="img-57ad6ca6-56">
              <path d="M-0.41,-3.68 L0.41,-3.68 0.41,3.68 -0.41,3.68  z" class="primitive"/>
            </g>
            <g transform="translate(45.33,74.59)" id="img-57ad6ca6-57">
              <path d="M-0.41,-4.12 L0.41,-4.12 0.41,4.12 -0.41,4.12  z" class="primitive"/>
            </g>
            <g transform="translate(46.1,75.49)" id="img-57ad6ca6-58">
              <path d="M-0.41,-3.23 L0.41,-3.23 0.41,3.23 -0.41,3.23  z" class="primitive"/>
            </g>
            <g transform="translate(46.87,75.58)" id="img-57ad6ca6-59">
              <path d="M-0.41,-3.14 L0.41,-3.14 0.41,3.14 -0.41,3.14  z" class="primitive"/>
            </g>
            <g transform="translate(47.64,75.76)" id="img-57ad6ca6-60">
              <path d="M-0.41,-2.96 L0.41,-2.96 0.41,2.96 -0.41,2.96  z" class="primitive"/>
            </g>
            <g transform="translate(48.41,75.58)" id="img-57ad6ca6-61">
              <path d="M-0.41,-3.14 L0.41,-3.14 0.41,3.14 -0.41,3.14  z" class="primitive"/>
            </g>
            <g transform="translate(49.19,74.5)" id="img-57ad6ca6-62">
              <path d="M-0.41,-4.21 L0.41,-4.21 0.41,4.21 -0.41,4.21  z" class="primitive"/>
            </g>
            <g transform="translate(49.96,73.34)" id="img-57ad6ca6-63">
              <path d="M-0.41,-5.38 L0.41,-5.38 0.41,5.38 -0.41,5.38  z" class="primitive"/>
            </g>
            <g transform="translate(50.73,73.87)" id="img-57ad6ca6-64">
              <path d="M-0.41,-4.84 L0.41,-4.84 0.41,4.84 -0.41,4.84  z" class="primitive"/>
            </g>
            <g transform="translate(51.5,73.87)" id="img-57ad6ca6-65">
              <path d="M-0.41,-4.84 L0.41,-4.84 0.41,4.84 -0.41,4.84  z" class="primitive"/>
            </g>
            <g transform="translate(52.27,73.78)" id="img-57ad6ca6-66">
              <path d="M-0.41,-4.93 L0.41,-4.93 0.41,4.93 -0.41,4.93  z" class="primitive"/>
            </g>
            <g transform="translate(53.04,74.05)" id="img-57ad6ca6-67">
              <path d="M-0.41,-4.66 L0.41,-4.66 0.41,4.66 -0.41,4.66  z" class="primitive"/>
            </g>
            <g transform="translate(53.81,73.69)" id="img-57ad6ca6-68">
              <path d="M-0.41,-5.02 L0.41,-5.02 0.41,5.02 -0.41,5.02  z" class="primitive"/>
            </g>
            <g transform="translate(54.59,72.98)" id="img-57ad6ca6-69">
              <path d="M-0.41,-5.74 L0.41,-5.74 0.41,5.74 -0.41,5.74  z" class="primitive"/>
            </g>
            <g transform="translate(55.36,72.89)" id="img-57ad6ca6-70">
              <path d="M-0.41,-5.83 L0.41,-5.83 0.41,5.83 -0.41,5.83  z" class="primitive"/>
            </g>
            <g transform="translate(56.13,71.72)" id="img-57ad6ca6-71">
              <path d="M-0.41,-6.99 L0.41,-6.99 0.41,6.99 -0.41,6.99  z" class="primitive"/>
            </g>
            <g transform="translate(56.9,72.53)" id="img-57ad6ca6-72">
              <path d="M-0.41,-6.19 L0.41,-6.19 0.41,6.19 -0.41,6.19  z" class="primitive"/>
            </g>
            <g transform="translate(57.67,70.2)" id="img-57ad6ca6-73">
              <path d="M-0.41,-8.52 L0.41,-8.52 0.41,8.52 -0.41,8.52  z" class="primitive"/>
            </g>
            <g transform="translate(58.44,71.18)" id="img-57ad6ca6-74">
              <path d="M-0.41,-7.53 L0.41,-7.53 0.41,7.53 -0.41,7.53  z" class="primitive"/>
            </g>
            <g transform="translate(59.21,72.44)" id="img-57ad6ca6-75">
              <path d="M-0.41,-6.28 L0.41,-6.28 0.41,6.28 -0.41,6.28  z" class="primitive"/>
            </g>
            <g transform="translate(59.98,69.66)" id="img-57ad6ca6-76">
              <path d="M-0.41,-9.05 L0.41,-9.05 0.41,9.05 -0.41,9.05  z" class="primitive"/>
            </g>
            <g transform="translate(60.76,69.39)" id="img-57ad6ca6-77">
              <path d="M-0.41,-9.32 L0.41,-9.32 0.41,9.32 -0.41,9.32  z" class="primitive"/>
            </g>
            <g transform="translate(61.53,69.84)" id="img-57ad6ca6-78">
              <path d="M-0.41,-8.87 L0.41,-8.87 0.41,8.87 -0.41,8.87  z" class="primitive"/>
            </g>
            <g transform="translate(62.3,70.47)" id="img-57ad6ca6-79">
              <path d="M-0.41,-8.25 L0.41,-8.25 0.41,8.25 -0.41,8.25  z" class="primitive"/>
            </g>
            <g transform="translate(63.07,70.29)" id="img-57ad6ca6-80">
              <path d="M-0.41,-8.43 L0.41,-8.43 0.41,8.43 -0.41,8.43  z" class="primitive"/>
            </g>
            <g transform="translate(63.84,69.66)" id="img-57ad6ca6-81">
              <path d="M-0.41,-9.05 L0.41,-9.05 0.41,9.05 -0.41,9.05  z" class="primitive"/>
            </g>
            <g transform="translate(64.61,67.87)" id="img-57ad6ca6-82">
              <path d="M-0.41,-10.85 L0.41,-10.85 0.41,10.85 -0.41,10.85  z" class="primitive"/>
            </g>
            <g transform="translate(65.38,67.6)" id="img-57ad6ca6-83">
              <path d="M-0.41,-11.12 L0.41,-11.12 0.41,11.12 -0.41,11.12  z" class="primitive"/>
            </g>
            <g transform="translate(66.16,67.96)" id="img-57ad6ca6-84">
              <path d="M-0.41,-10.76 L0.41,-10.76 0.41,10.76 -0.41,10.76  z" class="primitive"/>
            </g>
            <g transform="translate(66.93,67.15)" id="img-57ad6ca6-85">
              <path d="M-0.41,-11.56 L0.41,-11.56 0.41,11.56 -0.41,11.56  z" class="primitive"/>
            </g>
            <g transform="translate(67.7,68.41)" id="img-57ad6ca6-86">
              <path d="M-0.41,-10.31 L0.41,-10.31 0.41,10.31 -0.41,10.31  z" class="primitive"/>
            </g>
            <g transform="translate(68.47,67.06)" id="img-57ad6ca6-87">
              <path d="M-0.41,-11.65 L0.41,-11.65 0.41,11.65 -0.41,11.65  z" class="primitive"/>
            </g>
            <g transform="translate(69.24,66.61)" id="img-57ad6ca6-88">
              <path d="M-0.41,-12.1 L0.41,-12.1 0.41,12.1 -0.41,12.1  z" class="primitive"/>
            </g>
            <g transform="translate(70.01,69.21)" id="img-57ad6ca6-89">
              <path d="M-0.41,-9.5 L0.41,-9.5 0.41,9.5 -0.41,9.5  z" class="primitive"/>
            </g>
            <g transform="translate(70.78,69.03)" id="img-57ad6ca6-90">
              <path d="M-0.41,-9.68 L0.41,-9.68 0.41,9.68 -0.41,9.68  z" class="primitive"/>
            </g>
            <g transform="translate(71.56,68.76)" id="img-57ad6ca6-91">
              <path d="M-0.41,-9.95 L0.41,-9.95 0.41,9.95 -0.41,9.95  z" class="primitive"/>
            </g>
            <g transform="translate(72.33,66.79)" id="img-57ad6ca6-92">
              <path d="M-0.41,-11.92 L0.41,-11.92 0.41,11.92 -0.41,11.92  z" class="primitive"/>
            </g>
            <g transform="translate(73.1,66.97)" id="img-57ad6ca6-93">
              <path d="M-0.41,-11.74 L0.41,-11.74 0.41,11.74 -0.41,11.74  z" class="primitive"/>
            </g>
            <g transform="translate(73.87,66.52)" id="img-57ad6ca6-94">
              <path d="M-0.41,-12.19 L0.41,-12.19 0.41,12.19 -0.41,12.19  z" class="primitive"/>
            </g>
            <g transform="translate(74.64,65.54)" id="img-57ad6ca6-95">
              <path d="M-0.41,-13.18 L0.41,-13.18 0.41,13.18 -0.41,13.18  z" class="primitive"/>
            </g>
            <g transform="translate(75.41,64.64)" id="img-57ad6ca6-96">
              <path d="M-0.41,-14.07 L0.41,-14.07 0.41,14.07 -0.41,14.07  z" class="primitive"/>
            </g>
            <g transform="translate(76.18,67.78)" id="img-57ad6ca6-97">
              <path d="M-0.41,-10.94 L0.41,-10.94 0.41,10.94 -0.41,10.94  z" class="primitive"/>
            </g>
            <g transform="translate(76.95,67.15)" id="img-57ad6ca6-98">
              <path d="M-0.41,-11.56 L0.41,-11.56 0.41,11.56 -0.41,11.56  z" class="primitive"/>
            </g>
            <g transform="translate(77.73,64.73)" id="img-57ad6ca6-99">
              <path d="M-0.41,-13.98 L0.41,-13.98 0.41,13.98 -0.41,13.98  z" class="primitive"/>
            </g>
            <g transform="translate(78.5,66.97)" id="img-57ad6ca6-100">
              <path d="M-0.41,-11.74 L0.41,-11.74 0.41,11.74 -0.41,11.74  z" class="primitive"/>
            </g>
            <g transform="translate(79.27,66.16)" id="img-57ad6ca6-101">
              <path d="M-0.41,-12.55 L0.41,-12.55 0.41,12.55 -0.41,12.55  z" class="primitive"/>
            </g>
            <g transform="translate(80.04,64.91)" id="img-57ad6ca6-102">
              <path d="M-0.41,-13.81 L0.41,-13.81 0.41,13.81 -0.41,13.81  z" class="primitive"/>
            </g>
            <g transform="translate(80.81,68.76)" id="img-57ad6ca6-103">
              <path d="M-0.41,-9.95 L0.41,-9.95 0.41,9.95 -0.41,9.95  z" class="primitive"/>
            </g>
            <g transform="translate(81.58,67.15)" id="img-57ad6ca6-104">
              <path d="M-0.41,-11.56 L0.41,-11.56 0.41,11.56 -0.41,11.56  z" class="primitive"/>
            </g>
            <g transform="translate(82.35,64.28)" id="img-57ad6ca6-105">
              <path d="M-0.41,-14.43 L0.41,-14.43 0.41,14.43 -0.41,14.43  z" class="primitive"/>
            </g>
            <g transform="translate(83.13,67.33)" id="img-57ad6ca6-106">
              <path d="M-0.41,-11.38 L0.41,-11.38 0.41,11.38 -0.41,11.38  z" class="primitive"/>
            </g>
            <g transform="translate(83.9,67.42)" id="img-57ad6ca6-107">
              <path d="M-0.41,-11.3 L0.41,-11.3 0.41,11.3 -0.41,11.3  z" class="primitive"/>
            </g>
            <g transform="translate(84.67,65.9)" id="img-57ad6ca6-108">
              <path d="M-0.41,-12.82 L0.41,-12.82 0.41,12.82 -0.41,12.82  z" class="primitive"/>
            </g>
            <g transform="translate(85.44,67.6)" id="img-57ad6ca6-109">
              <path d="M-0.41,-11.12 L0.41,-11.12 0.41,11.12 -0.41,11.12  z" class="primitive"/>
            </g>
            <g transform="translate(86.21,66.25)" id="img-57ad6ca6-110">
              <path d="M-0.41,-12.46 L0.41,-12.46 0.41,12.46 -0.41,12.46  z" class="primitive"/>
            </g>
            <g transform="translate(86.98,66.7)" id="img-57ad6ca6-111">
              <path d="M-0.41,-12.01 L0.41,-12.01 0.41,12.01 -0.41,12.01  z" class="primitive"/>
            </g>
            <g transform="translate(87.75,66.79)" id="img-57ad6ca6-112">
              <path d="M-0.41,-11.92 L0.41,-11.92 0.41,11.92 -0.41,11.92  z" class="primitive"/>
            </g>
            <g transform="translate(88.53,67.87)" id="img-57ad6ca6-113">
              <path d="M-0.41,-10.85 L0.41,-10.85 0.41,10.85 -0.41,10.85  z" class="primitive"/>
            </g>
            <g transform="translate(89.3,70.38)" id="img-57ad6ca6-114">
              <path d="M-0.41,-8.34 L0.41,-8.34 0.41,8.34 -0.41,8.34  z" class="primitive"/>
            </g>
            <g transform="translate(90.07,66.52)" id="img-57ad6ca6-115">
              <path d="M-0.41,-12.19 L0.41,-12.19 0.41,12.19 -0.41,12.19  z" class="primitive"/>
            </g>
            <g transform="translate(90.84,69.39)" id="img-57ad6ca6-116">
              <path d="M-0.41,-9.32 L0.41,-9.32 0.41,9.32 -0.41,9.32  z" class="primitive"/>
            </g>
            <g transform="translate(91.61,67.42)" id="img-57ad6ca6-117">
              <path d="M-0.41,-11.3 L0.41,-11.3 0.41,11.3 -0.41,11.3  z" class="primitive"/>
            </g>
            <g transform="translate(92.38,68.05)" id="img-57ad6ca6-118">
              <path d="M-0.41,-10.67 L0.41,-10.67 0.41,10.67 -0.41,10.67  z" class="primitive"/>
            </g>
            <g transform="translate(93.15,69.03)" id="img-57ad6ca6-119">
              <path d="M-0.41,-9.68 L0.41,-9.68 0.41,9.68 -0.41,9.68  z" class="primitive"/>
            </g>
            <g transform="translate(93.92,69.39)" id="img-57ad6ca6-120">
              <path d="M-0.41,-9.32 L0.41,-9.32 0.41,9.32 -0.41,9.32  z" class="primitive"/>
            </g>
            <g transform="translate(94.7,69.12)" id="img-57ad6ca6-121">
              <path d="M-0.41,-9.59 L0.41,-9.59 0.41,9.59 -0.41,9.59  z" class="primitive"/>
            </g>
            <g transform="translate(95.47,68.32)" id="img-57ad6ca6-122">
              <path d="M-0.41,-10.4 L0.41,-10.4 0.41,10.4 -0.41,10.4  z" class="primitive"/>
            </g>
            <g transform="translate(96.24,69.3)" id="img-57ad6ca6-123">
              <path d="M-0.41,-9.41 L0.41,-9.41 0.41,9.41 -0.41,9.41  z" class="primitive"/>
            </g>
            <g transform="translate(97.01,69.66)" id="img-57ad6ca6-124">
              <path d="M-0.41,-9.05 L0.41,-9.05 0.41,9.05 -0.41,9.05  z" class="primitive"/>
            </g>
            <g transform="translate(97.78,70.02)" id="img-57ad6ca6-125">
              <path d="M-0.41,-8.7 L0.41,-8.7 0.41,8.7 -0.41,8.7  z" class="primitive"/>
            </g>
            <g transform="translate(98.55,70.02)" id="img-57ad6ca6-126">
              <path d="M-0.41,-8.7 L0.41,-8.7 0.41,8.7 -0.41,8.7  z" class="primitive"/>
            </g>
            <g transform="translate(99.32,68.5)" id="img-57ad6ca6-127">
              <path d="M-0.41,-10.22 L0.41,-10.22 0.41,10.22 -0.41,10.22  z" class="primitive"/>
            </g>
            <g transform="translate(100.1,70.56)" id="img-57ad6ca6-128">
              <path d="M-0.41,-8.16 L0.41,-8.16 0.41,8.16 -0.41,8.16  z" class="primitive"/>
            </g>
            <g transform="translate(100.87,71.1)" id="img-57ad6ca6-129">
              <path d="M-0.41,-7.62 L0.41,-7.62 0.41,7.62 -0.41,7.62  z" class="primitive"/>
            </g>
            <g transform="translate(101.64,72.8)" id="img-57ad6ca6-130">
              <path d="M-0.41,-5.92 L0.41,-5.92 0.41,5.92 -0.41,5.92  z" class="primitive"/>
            </g>
            <g transform="translate(102.41,71.72)" id="img-57ad6ca6-131">
              <path d="M-0.41,-6.99 L0.41,-6.99 0.41,6.99 -0.41,6.99  z" class="primitive"/>
            </g>
            <g transform="translate(103.18,71.1)" id="img-57ad6ca6-132">
              <path d="M-0.41,-7.62 L0.41,-7.62 0.41,7.62 -0.41,7.62  z" class="primitive"/>
            </g>
            <g transform="translate(103.95,70.74)" id="img-57ad6ca6-133">
              <path d="M-0.41,-7.98 L0.41,-7.98 0.41,7.98 -0.41,7.98  z" class="primitive"/>
            </g>
            <g transform="translate(104.72,71.72)" id="img-57ad6ca6-134">
              <path d="M-0.41,-6.99 L0.41,-6.99 0.41,6.99 -0.41,6.99  z" class="primitive"/>
            </g>
            <g transform="translate(105.5,71.18)" id="img-57ad6ca6-135">
              <path d="M-0.41,-7.53 L0.41,-7.53 0.41,7.53 -0.41,7.53  z" class="primitive"/>
            </g>
            <g transform="translate(106.27,71.81)" id="img-57ad6ca6-136">
              <path d="M-0.41,-6.9 L0.41,-6.9 0.41,6.9 -0.41,6.9  z" class="primitive"/>
            </g>
            <g transform="translate(107.04,71.99)" id="img-57ad6ca6-137">
              <path d="M-0.41,-6.72 L0.41,-6.72 0.41,6.72 -0.41,6.72  z" class="primitive"/>
            </g>
            <g transform="translate(107.81,72.35)" id="img-57ad6ca6-138">
              <path d="M-0.41,-6.36 L0.41,-6.36 0.41,6.36 -0.41,6.36  z" class="primitive"/>
            </g>
            <g transform="translate(108.58,73.34)" id="img-57ad6ca6-139">
              <path d="M-0.41,-5.38 L0.41,-5.38 0.41,5.38 -0.41,5.38  z" class="primitive"/>
            </g>
            <g transform="translate(109.35,72.44)" id="img-57ad6ca6-140">
              <path d="M-0.41,-6.28 L0.41,-6.28 0.41,6.28 -0.41,6.28  z" class="primitive"/>
            </g>
            <g transform="translate(110.12,74.05)" id="img-57ad6ca6-141">
              <path d="M-0.41,-4.66 L0.41,-4.66 0.41,4.66 -0.41,4.66  z" class="primitive"/>
            </g>
            <g transform="translate(110.89,73.25)" id="img-57ad6ca6-142">
              <path d="M-0.41,-5.47 L0.41,-5.47 0.41,5.47 -0.41,5.47  z" class="primitive"/>
            </g>
            <g transform="translate(111.67,74.41)" id="img-57ad6ca6-143">
              <path d="M-0.41,-4.3 L0.41,-4.3 0.41,4.3 -0.41,4.3  z" class="primitive"/>
            </g>
            <g transform="translate(112.44,73.87)" id="img-57ad6ca6-144">
              <path d="M-0.41,-4.84 L0.41,-4.84 0.41,4.84 -0.41,4.84  z" class="primitive"/>
            </g>
            <g transform="translate(113.21,74.32)" id="img-57ad6ca6-145">
              <path d="M-0.41,-4.39 L0.41,-4.39 0.41,4.39 -0.41,4.39  z" class="primitive"/>
            </g>
            <g transform="translate(113.98,74.77)" id="img-57ad6ca6-146">
              <path d="M-0.41,-3.94 L0.41,-3.94 0.41,3.94 -0.41,3.94  z" class="primitive"/>
            </g>
            <g transform="translate(114.75,74.68)" id="img-57ad6ca6-147">
              <path d="M-0.41,-4.03 L0.41,-4.03 0.41,4.03 -0.41,4.03  z" class="primitive"/>
            </g>
            <g transform="translate(115.52,74.68)" id="img-57ad6ca6-148">
              <path d="M-0.41,-4.03 L0.41,-4.03 0.41,4.03 -0.41,4.03  z" class="primitive"/>
            </g>
            <g transform="translate(116.29,75.31)" id="img-57ad6ca6-149">
              <path d="M-0.41,-3.41 L0.41,-3.41 0.41,3.41 -0.41,3.41  z" class="primitive"/>
            </g>
            <g transform="translate(117.07,75.58)" id="img-57ad6ca6-150">
              <path d="M-0.41,-3.14 L0.41,-3.14 0.41,3.14 -0.41,3.14  z" class="primitive"/>
            </g>
            <g transform="translate(117.84,74.95)" id="img-57ad6ca6-151">
              <path d="M-0.41,-3.77 L0.41,-3.77 0.41,3.77 -0.41,3.77  z" class="primitive"/>
            </g>
            <g transform="translate(118.61,75.31)" id="img-57ad6ca6-152">
              <path d="M-0.41,-3.41 L0.41,-3.41 0.41,3.41 -0.41,3.41  z" class="primitive"/>
            </g>
            <g transform="translate(119.38,76.12)" id="img-57ad6ca6-153">
              <path d="M-0.41,-2.6 L0.41,-2.6 0.41,2.6 -0.41,2.6  z" class="primitive"/>
            </g>
            <g transform="translate(120.15,75.58)" id="img-57ad6ca6-154">
              <path d="M-0.41,-3.14 L0.41,-3.14 0.41,3.14 -0.41,3.14  z" class="primitive"/>
            </g>
            <g transform="translate(120.92,76.65)" id="img-57ad6ca6-155">
              <path d="M-0.41,-2.06 L0.41,-2.06 0.41,2.06 -0.41,2.06  z" class="primitive"/>
            </g>
            <g transform="translate(121.69,76.12)" id="img-57ad6ca6-156">
              <path d="M-0.41,-2.6 L0.41,-2.6 0.41,2.6 -0.41,2.6  z" class="primitive"/>
            </g>
            <g transform="translate(122.47,76.74)" id="img-57ad6ca6-157">
              <path d="M-0.41,-1.97 L0.41,-1.97 0.41,1.97 -0.41,1.97  z" class="primitive"/>
            </g>
            <g transform="translate(123.24,76.03)" id="img-57ad6ca6-158">
              <path d="M-0.41,-2.69 L0.41,-2.69 0.41,2.69 -0.41,2.69  z" class="primitive"/>
            </g>
            <g transform="translate(124.01,75.94)" id="img-57ad6ca6-159">
              <path d="M-0.41,-2.78 L0.41,-2.78 0.41,2.78 -0.41,2.78  z" class="primitive"/>
            </g>
            <g transform="translate(124.78,76.47)" id="img-57ad6ca6-160">
              <path d="M-0.41,-2.24 L0.41,-2.24 0.41,2.24 -0.41,2.24  z" class="primitive"/>
            </g>
            <g transform="translate(125.55,76.56)" id="img-57ad6ca6-161">
              <path d="M-0.41,-2.15 L0.41,-2.15 0.41,2.15 -0.41,2.15  z" class="primitive"/>
            </g>
            <g transform="translate(126.32,76.65)" id="img-57ad6ca6-162">
              <path d="M-0.41,-2.06 L0.41,-2.06 0.41,2.06 -0.41,2.06  z" class="primitive"/>
            </g>
            <g transform="translate(127.09,76.47)" id="img-57ad6ca6-163">
              <path d="M-0.41,-2.24 L0.41,-2.24 0.41,2.24 -0.41,2.24  z" class="primitive"/>
            </g>
            <g transform="translate(127.86,76.83)" id="img-57ad6ca6-164">
              <path d="M-0.41,-1.88 L0.41,-1.88 0.41,1.88 -0.41,1.88  z" class="primitive"/>
            </g>
            <g transform="translate(128.64,76.83)" id="img-57ad6ca6-165">
              <path d="M-0.41,-1.88 L0.41,-1.88 0.41,1.88 -0.41,1.88  z" class="primitive"/>
            </g>
            <g transform="translate(129.41,77.37)" id="img-57ad6ca6-166">
              <path d="M-0.41,-1.34 L0.41,-1.34 0.41,1.34 -0.41,1.34  z" class="primitive"/>
            </g>
            <g transform="translate(130.18,76.92)" id="img-57ad6ca6-167">
              <path d="M-0.41,-1.79 L0.41,-1.79 0.41,1.79 -0.41,1.79  z" class="primitive"/>
            </g>
            <g transform="translate(130.95,77.82)" id="img-57ad6ca6-168">
              <path d="M-0.41,-0.9 L0.41,-0.9 0.41,0.9 -0.41,0.9  z" class="primitive"/>
            </g>
            <g transform="translate(131.72,77.64)" id="img-57ad6ca6-169">
              <path d="M-0.41,-1.08 L0.41,-1.08 0.41,1.08 -0.41,1.08  z" class="primitive"/>
            </g>
            <g transform="translate(132.49,77.37)" id="img-57ad6ca6-170">
              <path d="M-0.41,-1.34 L0.41,-1.34 0.41,1.34 -0.41,1.34  z" class="primitive"/>
            </g>
            <g transform="translate(133.26,77.28)" id="img-57ad6ca6-171">
              <path d="M-0.41,-1.43 L0.41,-1.43 0.41,1.43 -0.41,1.43  z" class="primitive"/>
            </g>
            <g transform="translate(134.04,46.98)" id="img-57ad6ca6-172">
              <path d="M-0.41,-31.73 L0.41,-31.73 0.41,31.73 -0.41,31.73  z" class="primitive"/>
            </g>
          </g>
        </g>
      </g>
    </g>
  </g>
  <g class="guide ylabels" font-size="2.82" font-family="'PT Sans Caption','Helvetica Neue','Helvetica',sans-serif" fill="#6C606B" id="img-57ad6ca6-173">
    <g transform="translate(11.02,78.71)" id="img-57ad6ca6-174">
      <g class="primitive">
        <text text-anchor="end" dy="0.35em">0</text>
      </g>
    </g>
    <g transform="translate(11.02,60.79)" id="img-57ad6ca6-175">
      <g class="primitive">
        <text text-anchor="end" dy="0.35em">100</text>
      </g>
    </g>
    <g transform="translate(11.02,42.86)" id="img-57ad6ca6-176">
      <g class="primitive">
        <text text-anchor="end" dy="0.35em">200</text>
      </g>
    </g>
    <g transform="translate(11.02,24.93)" id="img-57ad6ca6-177">
      <g class="primitive">
        <text text-anchor="end" dy="0.35em">300</text>
      </g>
    </g>
    <g transform="translate(11.02,7)" id="img-57ad6ca6-178">
      <g class="primitive">
        <text text-anchor="end" dy="0.35em">400</text>
      </g>
    </g>
  </g>
</g>
<defs>
  <clipPath id="img-57ad6ca6-4">
    <path d="M12.02,5 L136.42,5 136.42,80.72 12.02,80.72 " />
  </clipPath>
</defs>
</svg>
